<svg xmlns="http://www.w3.org/2000/svg" width="576" height="576" viewBox="0 0 432 432" xmlns:v="https://vecta.io/nano"><style><![CDATA[.B{clip-path:url(#F)}.C{stroke:#000}.D{stroke:#ff934f}.E{stroke:#2d3142}.F{stroke:#058ed9}.G{stroke:#cc2d35}.H{stroke-linejoin:bevel}.I{fill:#ff934f}.J{fill:#2d3142}.K{fill:#058ed9}.L{fill:#cc2d35}.M{stroke-width:1.2}.N{fill:none}.O{stroke-linecap:square}.P{stroke-dasharray:1.2,1.98}.Q{stroke:#d3d3d3}]]></style><g fill="#fff"><path d="M0 432h432V0H0z"/><path d="M55.08 384.48h332.64V51.84H55.08z"/></g><g fill="#ffe4c9"><path d="M178.017 250.379l-9.09 5.248 9.09 5.248 9.09-5.248z" class="B"/><path d="M178.017 250.379l-9.09 5.248v-10.496l9.09-5.248z" class="B"/><path d="M178.017 250.379l9.09 5.248v-10.496l-9.09-5.248zm61.376 35.435l-9.09 5.248 9.09 5.248 9.09-5.248z" class="B"/><path d="M239.393 285.814l-9.09 5.248v-10.496l9.09-5.248z" class="B"/><path d="M239.393 285.814l9.09 5.248v-10.496l-9.09-5.248zm-61.376-45.931l-9.09 5.248 9.09 5.248 9.09-5.248z" class="B"/><path d="M178.017 260.874l9.09-5.248v-10.496l-9.09 5.248z" class="B"/><path d="M168.927 255.627l9.09 5.248v-10.496l-9.09-5.248zm70.466 19.691l-9.09 5.248 9.09 5.248 9.09-5.248z" class="B"/><path d="M239.393 296.31l9.09-5.248v-10.496l-9.09 5.248z" class="B"/><path d="M230.303 291.062l9.09 5.248v-10.496l-9.09-5.248z" class="B"/><path d="M178.017 250.379l-9.09 5.248 61.376 35.435 9.09-5.248z" class="B"/><path d="M187.106 255.627l-9.09-5.248 61.376 35.435 9.09 5.248z" class="B"/><path d="M178.017 250.379v-10.496l61.376 35.435 9.09 15.744z" class="B"/><path d="M187.106 255.627v-10.496l61.376 35.435-9.09 5.248z" class="B"/><path d="M178.017 260.874l9.09-5.248 61.376 35.435-9.09 5.248zm9.089-15.743l-9.09-5.248 61.376 35.435 9.09 5.248z" class="B"/><path d="M168.927 255.627l9.09 5.248 61.376 35.435-9.09-5.248zm9.09-15.744l-9.09 5.248 61.376 35.435 9.09-5.248z" class="B"/><path d="M168.927 255.627v-10.496l61.376 35.435 9.09 15.744z" class="B"/><path d="M178.017 260.874v-10.496l61.376 35.435-9.09 5.248z" class="B"/><path d="M168.927 245.131l9.09 5.248 61.376 35.435-9.09-5.248z" class="B"/><path d="M178.017 250.379l9.09-5.248 61.376 35.435-9.09 5.248z" class="B"/><path d="M178.017 250.379l-9.09 5.248 9.09 5.248 9.09-5.248z" class="B"/><path d="M178.017 250.379l-9.09 5.248v-10.496l9.09-5.248z" class="B"/><path d="M178.017 250.379l9.09 5.248v-10.496l-9.09-5.248zm0-56.643l-9.09 5.248 9.09 5.248 9.09-5.248z" class="B"/><path d="M178.017 193.736l-9.09 5.248v-10.496l9.09-5.248z" class="B"/><path d="M178.017 193.736l9.09 5.248v-10.496l-9.09-5.248zm0 46.147l-9.09 5.248 9.09 5.248 9.09-5.248z" class="B"/><path d="M178.017 260.874l9.09-5.248v-10.496l-9.09 5.248z" class="B"/><path d="M168.927 255.627l9.09 5.248v-10.496l-9.09-5.248zm9.09-72.386l-9.09 5.248 9.09 5.248 9.09-5.248z" class="B"/><path d="M178.017 204.232l9.09-5.248v-10.496l-9.09 5.248z" class="B"/><path d="M168.927 198.984l9.09 5.248v-10.496l-9.09-5.248z" class="B"/><path d="M178.017 250.379l-9.09 5.248v-56.642l9.09-5.248z" class="B"/><path d="M187.106 255.627l-9.09-5.248v-56.642l9.09 5.248z" class="B"/><path d="M178.017 250.379v-10.496-56.642l9.09 15.744z" class="B"/><path d="M187.106 255.627v-10.496-56.642l-9.09 5.248z" class="B"/><path d="M178.017 260.874l9.09-5.248v-56.642l-9.09 5.248z" class="B"/><path d="M187.106 245.131l-9.09-5.248v-56.642l9.09 5.248z" class="B"/><path d="M168.927 255.627l9.09 5.248v-56.642l-9.09-5.248z" class="B"/><path d="M178.017 239.883l-9.09 5.248v-56.642l9.09-5.248z" class="B"/><path d="M168.927 255.627v-10.496-56.642l9.09 15.744z" class="B"/><path d="M178.017 260.874v-10.496-56.642l-9.09 5.248z" class="B"/><path d="M168.927 245.131l9.09 5.248v-56.642l-9.09-5.248z" class="B"/><path d="M178.017 250.379l9.09-5.248v-56.642l-9.09 5.248z" class="B"/><path d="M178.017 250.379l-9.09 5.248 9.09 5.248 9.09-5.248z" class="B"/><path d="M178.017 250.379l-9.09 5.248v-10.496l9.09-5.248z" class="B"/><path d="M178.017 250.379l9.09 5.248v-10.496l-9.09-5.248zM-285.292 517.87l-9.09 5.248 9.09 5.248 9.09-5.248z" class="B"/><path d="M-285.292 517.87l-9.09 5.248v-10.496l9.09-5.248z" class="B"/><path d="M-285.292 517.87l9.09 5.248v-10.496l-9.09-5.248zm463.309-277.987l-9.09 5.248 9.09 5.248 9.09-5.248z" class="B"/><path d="M178.017 260.874l9.09-5.248v-10.496l-9.09 5.248z" class="B"/><path d="M168.927 255.627l9.09 5.248v-10.496l-9.09-5.248zm-454.219 251.747l-9.09 5.248 9.09 5.248 9.09-5.248z" class="B"/><path d="M-285.292 528.366l9.09-5.248v-10.496l-9.09 5.248z" class="B"/><path d="M-294.381 523.118l9.09 5.248V517.87l-9.09-5.248z" class="B"/><path d="M178.017 250.379l-9.09 5.248-463.308 267.491 9.09-5.248z" class="B"/><path d="M187.106 255.627l-9.09-5.248-463.308 267.491 9.09 5.248z" class="B"/><path d="M178.017 250.379v-10.496l-463.308 267.491 9.09 15.744z" class="B"/><path d="M187.106 255.627v-10.496l-463.308 267.491-9.09 5.248z" class="B"/><path d="M178.017 260.874l9.09-5.248-463.308 267.491-9.09 5.248zm9.089-15.743l-9.09-5.248-463.308 267.491 9.09 5.248z" class="B"/><path d="M168.927 255.627l9.09 5.248-463.308 267.491-9.09-5.248zm9.09-15.744l-9.09 5.248-463.308 267.491 9.09-5.248z" class="B"/><path d="M168.927 255.627v-10.496l-463.308 267.491 9.09 15.744z" class="B"/><path d="M178.017 260.874v-10.496L-285.292 517.87l-9.09 5.248z" class="B"/><path d="M168.927 245.131l9.09 5.248-463.308 267.491-9.09-5.248z" class="B"/><path d="M178.017 250.379l9.09-5.248-463.308 267.491-9.09 5.248zm61.376 35.435l-9.09 5.248 9.09 5.248 9.09-5.248z" class="B"/><path d="M239.393 285.814l-9.09 5.248v-10.496l9.09-5.248z" class="B"/><path d="M239.393 285.814l9.09 5.248v-10.496l-9.09-5.248zm-61.376-35.435l-9.09 5.248 9.09 5.248 9.09-5.248z" class="B"/><path d="M178.017 250.379l-9.09 5.248v-10.496l9.09-5.248z" class="B"/><path d="M178.017 250.379l9.09 5.248v-10.496l-9.09-5.248zm61.376 24.939l-9.09 5.248 9.09 5.248 9.09-5.248z" class="B"/><path d="M239.393 296.31l9.09-5.248v-10.496l-9.09 5.248z" class="B"/><path d="M230.303 291.062l9.09 5.248v-10.496l-9.09-5.248zm-52.286-51.179l-9.09 5.248 9.09 5.248 9.09-5.248z" class="B"/><path d="M178.017 260.874l9.09-5.248v-10.496l-9.09 5.248z" class="B"/><path d="M168.927 255.627l9.09 5.248v-10.496l-9.09-5.248z" class="B"/><path d="M239.393 285.814l-9.09 5.248-61.376-35.435 9.09-5.248z" class="B"/><path d="M248.482 291.062l-9.09-5.248-61.376-35.435 9.09 5.248z" class="B"/><path d="M239.393 285.814v-10.496l-61.376-35.435 9.09 15.744z" class="B"/><path d="M248.482 291.062v-10.496l-61.376-35.435-9.09 5.248z" class="B"/><path d="M239.393 296.31l9.09-5.248-61.376-35.435-9.09 5.248zm9.089-15.744l-9.09-5.248-61.376-35.435 9.09 5.248z" class="B"/><path d="M230.303 291.062l9.09 5.248-61.376-35.435-9.09-5.248zm9.09-15.744l-9.09 5.248-61.376-35.435 9.09-5.248z" class="B"/><path d="M230.303 291.062v-10.496l-61.376-35.435 9.09 15.744z" class="B"/><path d="M239.393 296.31v-10.496l-61.376-35.435-9.09 5.248z" class="B"/><path d="M230.303 280.566l9.09 5.248-61.376-35.435-9.09-5.248z" class="B"/><path d="M239.393 285.814l9.09-5.248-61.376-35.435-9.09 5.248z" class="B"/><path d="M239.393 285.814l-9.09 5.248 9.09 5.248 9.09-5.248z" class="B"/><path d="M239.393 285.814l-9.09 5.248v-10.496l9.09-5.248z" class="B"/><path d="M239.393 285.814l9.09 5.248v-10.496l-9.09-5.248zm38.553-22.259l-9.09 5.248 9.09 5.248 9.09-5.248z" class="B"/><path d="M277.946 263.555l-9.09 5.248v-10.496l9.09-5.248z" class="B"/><path d="M277.946 263.555l9.09 5.248v-10.496l-9.09-5.248zm-38.553 11.763l-9.09 5.248 9.09 5.248 9.09-5.248z" class="B"/><path d="M239.393 296.31l9.09-5.248v-10.496l-9.09 5.248z" class="B"/><path d="M230.303 291.062l9.09 5.248v-10.496l-9.09-5.248zm47.643-38.003l-9.09 5.248 9.09 5.248 9.09-5.248z" class="B"/><path d="M277.946 274.051l9.09-5.248v-10.496l-9.09 5.248z" class="B"/><path d="M268.857 268.803l9.09 5.248v-10.496l-9.09-5.248z" class="B"/><path d="M239.393 285.814l-9.09 5.248 38.554-22.259 9.09-5.248z" class="B"/><path d="M248.482 291.062l-9.09-5.248 38.554-22.259 9.09 5.248z" class="B"/><path d="M239.393 285.814v-10.496l38.554-22.259 9.09 15.744z" class="B"/><path d="M248.482 291.062v-10.496l38.554-22.259-9.09 5.248z" class="B"/><path d="M239.393 296.31l9.09-5.248 38.554-22.259-9.09 5.248zm9.089-15.744l-9.09-5.248 38.554-22.259 9.09 5.248z" class="B"/><path d="M230.303 291.062l9.09 5.248 38.554-22.259-9.09-5.248zm9.09-15.744l-9.09 5.248 38.554-22.259 9.09-5.248z" class="B"/><path d="M230.303 291.062v-10.496l38.554-22.259 9.09 15.744z" class="B"/><path d="M239.393 296.31v-10.496l38.554-22.259-9.09 5.248z" class="B"/><path d="M230.303 280.566l9.09 5.248 38.554-22.259-9.09-5.248z" class="B"/><path d="M239.393 285.814l9.09-5.248 38.554-22.259-9.09 5.248zm-61.376-92.078l-9.09 5.248 9.09 5.248 9.09-5.248z" class="B"/><path d="M178.017 193.736l-9.09 5.248v-10.496l9.09-5.248z" class="B"/><path d="M178.017 193.736l9.09 5.248v-10.496l-9.09-5.248zm0 56.643l-9.09 5.248 9.09 5.248 9.09-5.248z" class="B"/><path d="M178.017 250.379l-9.09 5.248v-10.496l9.09-5.248z" class="B"/><path d="M178.017 250.379l9.09 5.248v-10.496l-9.09-5.248zm0-67.138l-9.09 5.248 9.09 5.248 9.09-5.248z" class="B"/><path d="M178.017 204.232l9.09-5.248v-10.496l-9.09 5.248z" class="B"/><path d="M168.927 198.984l9.09 5.248v-10.496l-9.09-5.248zm9.09 40.899l-9.09 5.248 9.09 5.248 9.09-5.248z" class="B"/><path d="M178.017 260.874l9.09-5.248v-10.496l-9.09 5.248z" class="B"/><path d="M168.927 255.627l9.09 5.248v-10.496l-9.09-5.248z" class="B"/><path d="M178.017 193.736l-9.09 5.248v56.642l9.09-5.248z" class="B"/><path d="M187.106 198.984l-9.09-5.248v56.642l9.09 5.248z" class="B"/><path d="M178.017 193.736v-10.496 56.642l9.09 15.744z" class="B"/><path d="M187.106 198.984v-10.496 56.642l-9.09 5.248z" class="B"/><path d="M178.017 204.232l9.09-5.248v56.642l-9.09 5.248z" class="B"/><path d="M187.106 188.489l-9.09-5.248v56.642l9.09 5.248z" class="B"/><path d="M168.927 198.984l9.09 5.248v56.642l-9.09-5.248z" class="B"/><path d="M178.017 183.241l-9.09 5.248v56.642l9.09-5.248z" class="B"/><path d="M168.927 198.984v-10.496 56.642l9.09 15.744z" class="B"/><path d="M178.017 204.232v-10.496 56.642l-9.09 5.248z" class="B"/><path d="M168.927 188.489l9.09 5.248v56.642l-9.09-5.248z" class="B"/><path d="M178.017 193.736l9.09-5.248v56.642l-9.09 5.248z" class="B"/><path d="M178.017 193.736l-9.09 5.248 9.09 5.248 9.09-5.248z" class="B"/><path d="M178.017 193.736l-9.09 5.248v-10.496l9.09-5.248z" class="B"/><path d="M178.017 193.736l9.09 5.248v-10.496l-9.09-5.248zm46.165-26.653l-9.09 5.248 9.09 5.248 9.09-5.248z" class="B"/><path d="M224.182 167.083l-9.09 5.248v-10.496l9.09-5.248z" class="B"/><path d="M224.182 167.083l9.09 5.248v-10.496l-9.09-5.248zm-46.165 16.158l-9.09 5.248 9.09 5.248 9.09-5.248z" class="B"/><path d="M178.017 204.232l9.09-5.248v-10.496l-9.09 5.248z" class="B"/><path d="M168.927 198.984l9.09 5.248v-10.496l-9.09-5.248zm55.255-42.397l-9.09 5.248 9.09 5.248 9.09-5.248z" class="B"/><path d="M224.182 177.579l9.09-5.248v-10.496l-9.09 5.248z" class="B"/><path d="M215.092 172.331l9.09 5.248v-10.496l-9.09-5.248z" class="B"/><path d="M178.017 193.736l-9.09 5.248 46.165-26.653 9.09-5.248z" class="B"/><path d="M187.106 198.984l-9.09-5.248 46.165-26.653 9.09 5.248z" class="B"/><path d="M178.017 193.736v-10.496l46.165-26.653 9.09 15.744z" class="B"/><path d="M187.106 198.984v-10.496l46.165-26.653-9.09 5.248z" class="B"/><path d="M178.017 204.232l9.09-5.248 46.165-26.653-9.09 5.248zm9.089-15.743l-9.09-5.248 46.165-26.653 9.09 5.248z" class="B"/><path d="M168.927 198.984l9.09 5.248 46.165-26.653-9.09-5.248zm9.09-15.743l-9.09 5.248 46.165-26.653 9.09-5.248z" class="B"/><path d="M168.927 198.984v-10.496l46.165-26.653 9.09 15.744z" class="B"/><path d="M178.017 204.232v-10.496l46.165-26.653-9.09 5.248z" class="B"/><path d="M168.927 188.489l9.09 5.248 46.165-26.653-9.09-5.248z" class="B"/><path d="M178.017 193.736l9.09-5.248 46.165-26.653-9.09 5.248zm99.929 69.819l-9.09 5.248 9.09 5.248 9.09-5.248z" class="B"/><path d="M277.946 263.555l-9.09 5.248v-10.496l9.09-5.248z" class="B"/><path d="M277.946 263.555l9.09 5.248v-10.496l-9.09-5.248zm-38.553 22.259l-9.09 5.248 9.09 5.248 9.09-5.248z" class="B"/><path d="M239.393 285.814l-9.09 5.248v-10.496l9.09-5.248z" class="B"/><path d="M239.393 285.814l9.09 5.248v-10.496l-9.09-5.248zm38.553-32.755l-9.09 5.248 9.09 5.248 9.09-5.248z" class="B"/><path d="M277.946 274.051l9.09-5.248v-10.496l-9.09 5.248z" class="B"/><path d="M268.857 268.803l9.09 5.248v-10.496l-9.09-5.248zm-29.464 6.515l-9.09 5.248 9.09 5.248 9.09-5.248z" class="B"/><path d="M239.393 296.31l9.09-5.248v-10.496l-9.09 5.248z" class="B"/><path d="M230.303 291.062l9.09 5.248v-10.496l-9.09-5.248z" class="B"/><path d="M277.946 263.555l-9.09 5.248-38.554 22.259 9.09-5.248z" class="B"/><path d="M287.036 268.803l-9.09-5.248-38.554 22.259 9.09 5.248z" class="B"/><path d="M277.946 263.555v-10.496l-38.554 22.259 9.09 15.744z" class="B"/><path d="M287.036 268.803v-10.496l-38.554 22.259-9.09 5.248z" class="B"/><path d="M277.946 274.051l9.09-5.248-38.554 22.259-9.09 5.248zm9.09-15.744l-9.09-5.248-38.554 22.259 9.09 5.248z" class="B"/><path d="M268.857 268.803l9.09 5.248-38.554 22.259-9.09-5.248zm9.089-15.744l-9.09 5.248-38.554 22.259 9.09-5.248z" class="B"/><path d="M268.857 268.803v-10.496l-38.554 22.259 9.09 15.744z" class="B"/><path d="M277.946 274.051v-10.496l-38.554 22.259-9.09 5.248z" class="B"/><path d="M268.857 258.307l9.09 5.248-38.554 22.259-9.09-5.248z" class="B"/><path d="M277.946 263.555l9.09-5.248-38.554 22.259-9.09 5.248z" class="B"/><path d="M277.946 263.555l-9.09 5.248 9.09 5.248 9.09-5.248z" class="B"/><path d="M277.946 263.555l-9.09 5.248v-10.496l9.09-5.248z" class="B"/><path d="M277.946 263.555l9.09 5.248v-10.496l-9.09-5.248zm0-65.431l-9.09 5.248 9.09 5.248 9.09-5.248z" class="B"/><path d="M277.946 198.124l-9.09 5.248v-10.496l9.09-5.248z" class="B"/><path d="M277.946 198.124l9.09 5.248v-10.496l-9.09-5.248zm0 54.935l-9.09 5.248 9.09 5.248 9.09-5.248z" class="B"/><path d="M277.946 274.051l9.09-5.248v-10.496l-9.09 5.248z" class="B"/><path d="M268.857 268.803l9.09 5.248v-10.496l-9.09-5.248zm9.089-81.175l-9.09 5.248 9.09 5.248 9.09-5.248z" class="B"/><path d="M277.946 208.62l9.09-5.248v-10.496l-9.09 5.248z" class="B"/><path d="M268.857 203.372l9.09 5.248v-10.496l-9.09-5.248z" class="B"/><path d="M277.946 263.555l-9.09 5.248v-65.431l9.09-5.248z" class="B"/><path d="M287.036 268.803l-9.09-5.248v-65.431l9.09 5.248z" class="B"/><path d="M277.946 263.555v-10.496-65.431l9.09 15.744z" class="B"/><path d="M287.036 268.803v-10.496-65.431l-9.09 5.248z" class="B"/><path d="M277.946 274.051l9.09-5.248v-65.431l-9.09 5.248z" class="B"/><path d="M287.036 258.307l-9.09-5.248v-65.431l9.09 5.248z" class="B"/><path d="M268.857 268.803l9.09 5.248V208.62l-9.09-5.248z" class="B"/><path d="M277.946 253.059l-9.09 5.248v-65.431l9.09-5.248z" class="B"/><path d="M268.857 268.803v-10.496-65.431l9.09 15.744z" class="B"/><path d="M277.946 274.051v-10.496-65.431l-9.09 5.248z" class="B"/><path d="M268.857 258.307l9.09 5.248v-65.431l-9.09-5.248z" class="B"/><path d="M277.946 263.555l9.09-5.248v-65.431l-9.09 5.248z" class="B"/><path d="M277.946 263.555l-9.09 5.248 9.09 5.248 9.09-5.248z" class="B"/><path d="M277.946 263.555l-9.09 5.248v-10.496l9.09-5.248z" class="B"/><path d="M277.946 263.555l9.09 5.248v-10.496l-9.09-5.248zm463.309 267.491l-9.09 5.248 9.09 5.248 9.09-5.248z" class="B"/><path d="M741.255 531.046l-9.09 5.248v-10.496l9.09-5.248z" class="B"/><path d="M741.255 531.046l9.09 5.248v-10.496l-9.09-5.248zM277.946 253.059l-9.09 5.248 9.09 5.248 9.09-5.248z" class="B"/><path d="M277.946 274.051l9.09-5.248v-10.496l-9.09 5.248z" class="B"/><path d="M268.857 268.803l9.09 5.248v-10.496l-9.09-5.248zM741.255 520.55l-9.09 5.248 9.09 5.248 9.09-5.248z" class="B"/><path d="M741.255 541.542l9.09-5.248v-10.496l-9.09 5.248z" class="B"/><path d="M732.165 536.294l9.09 5.248v-10.496l-9.09-5.248z" class="B"/><path d="M277.946 263.555l-9.09 5.248 463.308 267.491 9.09-5.248z" class="B"/><path d="M287.036 268.803l-9.09-5.248 463.308 267.491 9.09 5.248z" class="B"/><path d="M277.946 263.555v-10.496L741.255 520.55l9.09 15.744z" class="B"/><path d="M287.036 268.803v-10.496l463.308 267.491-9.09 5.248z" class="B"/><path d="M277.946 274.051l9.09-5.248 463.308 267.491-9.09 5.248zm9.09-15.744l-9.09-5.248L741.255 520.55l9.09 5.248z" class="B"/><path d="M268.857 268.803l9.09 5.248 463.308 267.491-9.09-5.248zm9.089-15.744l-9.09 5.248 463.308 267.491 9.09-5.248z" class="B"/><path d="M268.857 268.803v-10.496l463.308 267.491 9.09 15.744z" class="B"/><path d="M277.946 274.051v-10.496l463.308 267.491-9.09 5.248z" class="B"/><path d="M268.857 258.307l9.09 5.248 463.308 267.491-9.09-5.248z" class="B"/><path d="M277.946 263.555l9.09-5.248 463.308 267.491-9.09 5.248zm0-65.431l-9.09 5.248 9.09 5.248 9.09-5.248z" class="B"/><path d="M277.946 198.124l-9.09 5.248v-10.496l9.09-5.248z" class="B"/><path d="M277.946 198.124l9.09 5.248v-10.496l-9.09-5.248zm0 65.431l-9.09 5.248 9.09 5.248 9.09-5.248z" class="B"/><path d="M277.946 263.555l-9.09 5.248v-10.496l9.09-5.248z" class="B"/><path d="M277.946 263.555l9.09 5.248v-10.496l-9.09-5.248zm0-75.927l-9.09 5.248 9.09 5.248 9.09-5.248z" class="B"/><path d="M277.946 208.62l9.09-5.248v-10.496l-9.09 5.248z" class="B"/><path d="M268.857 203.372l9.09 5.248v-10.496l-9.09-5.248zm9.089 49.687l-9.09 5.248 9.09 5.248 9.09-5.248z" class="B"/><path d="M277.946 274.051l9.09-5.248v-10.496l-9.09 5.248z" class="B"/><path d="M268.857 268.803l9.09 5.248v-10.496l-9.09-5.248z" class="B"/><path d="M277.946 198.124l-9.09 5.248v65.431l9.09-5.248z" class="B"/><path d="M287.036 203.372l-9.09-5.248v65.431l9.09 5.248z" class="B"/><path d="M277.946 198.124v-10.496 65.431l9.09 15.744z" class="B"/><path d="M287.036 203.372v-10.496 65.431l-9.09 5.248z" class="B"/><path d="M277.946 208.62l9.09-5.248v65.431l-9.09 5.248z" class="B"/><path d="M287.036 192.876l-9.09-5.248v65.431l9.09 5.248z" class="B"/><path d="M268.857 203.372l9.09 5.248v65.431l-9.09-5.248z" class="B"/><path d="M277.946 187.628l-9.09 5.248v65.431l9.09-5.248z" class="B"/><path d="M268.857 203.372v-10.496 65.431l9.09 15.744z" class="B"/><path d="M277.946 208.62v-10.496 65.431l-9.09 5.248z" class="B"/><path d="M268.857 192.876l9.09 5.248v65.431l-9.09-5.248z" class="B"/><path d="M277.946 198.124l9.09-5.248v65.431l-9.09 5.248z" class="B"/><path d="M277.946 198.124l-9.09 5.248 9.09 5.248 9.09-5.248z" class="B"/><path d="M277.946 198.124l-9.09 5.248v-10.496l9.09-5.248z" class="B"/><path d="M277.946 198.124l9.09 5.248v-10.496l-9.09-5.248zm-53.764-31.041l-9.09 5.248 9.09 5.248 9.09-5.248z" class="B"/><path d="M224.182 167.083l-9.09 5.248v-10.496l9.09-5.248z" class="B"/><path d="M224.182 167.083l9.09 5.248v-10.496l-9.09-5.248zm53.764 20.545l-9.09 5.248 9.09 5.248 9.09-5.248z" class="B"/><path d="M277.946 208.62l9.09-5.248v-10.496l-9.09 5.248z" class="B"/><path d="M268.857 203.372l9.09 5.248v-10.496l-9.09-5.248zm-44.675-46.785l-9.09 5.248 9.09 5.248 9.09-5.248z" class="B"/><path d="M224.182 177.579l9.09-5.248v-10.496l-9.09 5.248z" class="B"/><path d="M215.092 172.331l9.09 5.248v-10.496l-9.09-5.248z" class="B"/><path d="M277.946 198.124l-9.09 5.248-53.765-31.041 9.09-5.248z" class="B"/><path d="M287.036 203.372l-9.09-5.248-53.765-31.041 9.09 5.248z" class="B"/><path d="M277.946 198.124v-10.496l-53.765-31.041 9.09 15.744z" class="B"/><path d="M287.036 203.372v-10.496l-53.765-31.041-9.09 5.248z" class="B"/><path d="M277.946 208.62l9.09-5.248-53.765-31.041-9.09 5.248zm9.09-15.744l-9.09-5.248-53.765-31.041 9.09 5.248z" class="B"/><path d="M268.857 203.372l9.09 5.248-53.765-31.041-9.09-5.248zm9.089-15.744l-9.09 5.248-53.765-31.041 9.09-5.248z" class="B"/><path d="M268.857 203.372v-10.496l-53.765-31.041 9.09 15.744z" class="B"/><path d="M277.946 208.62v-10.496l-53.765-31.041-9.09 5.248z" class="B"/><path d="M268.857 192.876l9.09 5.248-53.765-31.041-9.09-5.248z" class="B"/><path d="M277.946 198.124l9.09-5.248-53.765-31.041-9.09 5.248z" class="B"/><path d="M224.182 167.083l-9.09 5.248 9.09 5.248 9.09-5.248z" class="B"/><path d="M224.182 167.083l-9.09 5.248v-10.496l9.09-5.248z" class="B"/><path d="M224.182 167.083l9.09 5.248v-10.496l-9.09-5.248zm-46.165 26.653l-9.09 5.248 9.09 5.248 9.09-5.248z" class="B"/><path d="M178.017 193.736l-9.09 5.248v-10.496l9.09-5.248z" class="B"/><path d="M178.017 193.736l9.09 5.248v-10.496l-9.09-5.248zm46.165-37.149l-9.09 5.248 9.09 5.248 9.09-5.248z" class="B"/><path d="M224.182 177.579l9.09-5.248v-10.496l-9.09 5.248z" class="B"/><path d="M215.092 172.331l9.09 5.248v-10.496l-9.09-5.248zm-37.075 10.91l-9.09 5.248 9.09 5.248 9.09-5.248z" class="B"/><path d="M178.017 204.232l9.09-5.248v-10.496l-9.09 5.248z" class="B"/><path d="M168.927 198.984l9.09 5.248v-10.496l-9.09-5.248z" class="B"/><path d="M224.182 167.083l-9.09 5.248-46.165 26.653 9.09-5.248z" class="B"/><path d="M233.271 172.331l-9.09-5.248-46.165 26.653 9.09 5.248z" class="B"/><path d="M224.182 167.083v-10.496l-46.165 26.653 9.09 15.744z" class="B"/><path d="M233.271 172.331v-10.496l-46.165 26.653-9.09 5.248z" class="B"/><path d="M224.182 177.579l9.09-5.248-46.165 26.653-9.09 5.248zm9.089-15.744l-9.09-5.248-46.165 26.653 9.09 5.248z" class="B"/><path d="M215.092 172.331l9.09 5.248-46.165 26.653-9.09-5.248zm9.09-15.744l-9.09 5.248-46.165 26.653 9.09-5.248z" class="B"/><path d="M215.092 172.331v-10.496l-46.165 26.653 9.09 15.744z" class="B"/><path d="M224.182 177.579v-10.496l-46.165 26.653-9.09 5.248z" class="B"/><path d="M215.092 161.835l9.09 5.248-46.165 26.653-9.09-5.248z" class="B"/><path d="M224.182 167.083l9.09-5.248-46.165 26.653-9.09 5.248z" class="B"/><path d="M224.182 167.083l-9.09 5.248 9.09 5.248 9.09-5.248z" class="B"/><path d="M224.182 167.083l-9.09 5.248v-10.496l9.09-5.248z" class="B"/><path d="M224.182 167.083l9.09 5.248v-10.496l-9.09-5.248zm53.764 31.041l-9.09 5.248 9.09 5.248 9.09-5.248z" class="B"/><path d="M277.946 198.124l-9.09 5.248v-10.496l9.09-5.248z" class="B"/><path d="M277.946 198.124l9.09 5.248v-10.496l-9.09-5.248zm-53.764-41.537l-9.09 5.248 9.09 5.248 9.09-5.248z" class="B"/><path d="M224.182 177.579l9.09-5.248v-10.496l-9.09 5.248z" class="B"/><path d="M215.092 172.331l9.09 5.248v-10.496l-9.09-5.248zm62.854 15.297l-9.09 5.248 9.09 5.248 9.09-5.248z" class="B"/><path d="M277.946 208.62l9.09-5.248v-10.496l-9.09 5.248z" class="B"/><path d="M268.857 203.372l9.09 5.248v-10.496l-9.09-5.248z" class="B"/><path d="M224.182 167.083l-9.09 5.248 53.765 31.041 9.09-5.248z" class="B"/><path d="M233.271 172.331l-9.09-5.248 53.765 31.041 9.09 5.248z" class="B"/><path d="M224.182 167.083v-10.496l53.765 31.041 9.09 15.744z" class="B"/><path d="M233.271 172.331v-10.496l53.765 31.041-9.09 5.248z" class="B"/><path d="M224.182 177.579l9.09-5.248 53.765 31.041-9.09 5.248zm9.089-15.744l-9.09-5.248 53.765 31.041 9.09 5.248z" class="B"/><path d="M215.092 172.331l9.09 5.248 53.765 31.041-9.09-5.248zm9.09-15.744l-9.09 5.248 53.765 31.041 9.09-5.248z" class="B"/><path d="M215.092 172.331v-10.496l53.765 31.041 9.09 15.744z" class="B"/><path d="M224.182 177.579v-10.496l53.765 31.041-9.09 5.248z" class="B"/><path d="M215.092 161.835l9.09 5.248 53.765 31.041-9.09-5.248z" class="B"/><path d="M224.182 167.083l9.09-5.248 53.765 31.041-9.09 5.248z" class="B"/><path d="M224.182 167.083l-9.09 5.248 9.09 5.248 9.09-5.248z" class="B"/><path d="M224.182 167.083l-9.09 5.248v-10.496l9.09-5.248z" class="B"/><path d="M224.182 167.083l9.09 5.248v-10.496l-9.09-5.248zm0-534.982l-9.09 5.248 9.09 5.248 9.09-5.248z" class="B"/><path d="M224.182-367.899l-9.09 5.248v-10.496l9.09-5.248z" class="B"/><path d="M224.182-367.899l9.09 5.248v-10.496l-9.09-5.248zm0 524.486l-9.09 5.248 9.09 5.248 9.09-5.248z" class="B"/><path d="M224.182 177.579l9.09-5.248v-10.496l-9.09 5.248z" class="B"/><path d="M215.092 172.331l9.09 5.248v-10.496l-9.09-5.248zm9.09-550.726l-9.09 5.248 9.09 5.248 9.09-5.248z" class="B"/><path d="M224.182-357.403l9.09-5.248v-10.496l-9.09 5.248z" class="B"/><path d="M215.092-362.651l9.09 5.248v-10.496l-9.09-5.248z" class="B"/><path d="M224.182 167.083l-9.09 5.248v-534.982l9.09-5.248z" class="B"/><path d="M233.271 172.331l-9.09-5.248v-534.982l9.09 5.248z" class="B"/><path d="M224.182 167.083v-10.496-534.982l9.09 15.744z" class="B"/><path d="M233.271 172.331v-10.496-534.982l-9.09 5.248z" class="B"/><path d="M224.182 177.579l9.09-5.248v-534.982l-9.09 5.248z" class="B"/><path d="M233.271 161.835l-9.09-5.248v-534.982l9.09 5.248z" class="B"/><path d="M215.092 172.331l9.09 5.248v-534.982l-9.09-5.248z" class="B"/><path d="M224.182 156.587l-9.09 5.248v-534.982l9.09-5.248z" class="B"/><path d="M215.092 172.331v-10.496-534.982l9.09 15.744z" class="B"/><path d="M224.182 177.579v-10.496-534.982l-9.09 5.248z" class="B"/><path d="M215.092 161.835l9.09 5.248v-534.982l-9.09-5.248z" class="B"/><path d="M224.182 167.083l9.09-5.248v-534.982l-9.09 5.248z" class="B"/></g><defs><path id="A" d="M0 2.4a2.4 2.4 0 0 0 1.697-.703A2.4 2.4 0 0 0 2.4 0a2.4 2.4 0 0 0-.703-1.697A2.4 2.4 0 0 0 0-2.4a2.4 2.4 0 0 0-1.697.703A2.4 2.4 0 0 0-2.4 0a2.4 2.4 0 0 0 .703 1.697A2.4 2.4 0 0 0 0 2.4z" class="D"/></defs><g class="B D I"><use href="#A" x="340.089" y="148.967"/></g><g class="B D I"><use href="#A" x="362.986" y="148.871"/></g><g class="B D I"><use href="#A" x="332.103" y="106.033"/></g><g class="B D I"><use href="#A" x="343.309" y="145.732"/></g><g class="B D I"><use href="#A" x="342.867" y="158.099"/></g><g class="B D I"><use href="#A" x="350.475" y="134.264"/></g><g class="B D I"><use href="#A" x="363.837" y="167.553"/></g><g class="B D I"><use href="#A" x="316.528" y="151.639"/></g><g class="B D I"><use href="#A" x="320.239" y="145.899"/></g><g class="B D I"><use href="#A" x="341.875" y="129.578"/></g><defs><path id="B" d="M0 2.4l2.4-4.8h-4.8z" stroke-linejoin="miter" class="E"/></defs><g class="B E J"><use href="#B" x="111.912" y="154.235"/></g><g class="B E J"><use href="#B" x="96.972" y="154.432"/></g><g class="B E J"><use href="#B" x="86.117" y="153.037"/></g><g class="B E J"><use href="#B" x="140.108" y="162.005"/></g><g class="B E J"><use href="#B" x="120.398" y="139.987"/></g><g class="B E J"><use href="#B" x="138.544" y="124.509"/></g><g class="B E J"><use href="#B" x="105.1" y="178.851"/></g><g class="B E J"><use href="#B" x="112.005" y="149.217"/></g><g class="B E J"><use href="#B" x="124.604" y="160.205"/></g><g class="B E J"><use href="#B" x="93.846" y="142.763"/></g><defs><path id="C" d="M-2.4 0h4.8M0 2.4v-4.8" class="F"/></defs><g class="B F K"><use href="#C" x="230.262" y="359.53"/></g><g class="B F K"><use href="#C" x="230.743" y="373.524"/></g><g class="B F K"><use href="#C" x="218.206" y="347.184"/></g><g class="B F K"><use href="#C" x="242.461" y="350.848"/></g><g class="B F K"><use href="#C" x="225.177" y="351.708"/></g><g class="B F K"><use href="#C" x="255.21" y="308.087"/></g><g class="B F K"><use href="#C" x="215.645" y="353.185"/></g><g class="B F K"><use href="#C" x="241.208" y="336.561"/></g><g class="B F K"><use href="#C" x="224.752" y="322.927"/></g><g class="B F K"><use href="#C" x="201.871" y="369.42"/></g><defs><path id="D" d="M0-2.4L-.539-.742h-1.744L-.872.283l-.539 1.658L0 .917l1.411 1.025L.872.283 2.283-.742H.539z" class="G H"/></defs><g class="B G H L"><use href="#D" x="213.913" y="216.89"/></g><g class="B G H L"><use href="#D" x="216.617" y="231.747"/></g><g class="B G H L"><use href="#D" x="239.4" y="254.405"/></g><g class="B G H L"><use href="#D" x="234.593" y="220.092"/></g><g class="B G H L"><use href="#D" x="221.392" y="217.51"/></g><g class="B G H L"><use href="#D" x="242.305" y="241.764"/></g><g class="B G H L"><use href="#D" x="232.492" y="218.633"/></g><g class="B G H L"><use href="#D" x="236.169" y="215.984"/></g><g class="B G H L"><use href="#D" x="250.734" y="213.844"/></g><g class="B G H L"><use href="#D" x="205.223" y="209.451"/></g><defs><path id="E" d="M0 1.2A1.2 1.2 0 0 0 .849.849 1.2 1.2 0 0 0 1.2 0a1.2 1.2 0 0 0-.351-.849A1.2 1.2 0 0 0 0-1.2a1.2 1.2 0 0 0-.849.351A1.2 1.2 0 0 0-1.2 0a1.2 1.2 0 0 0 .351.849A1.2 1.2 0 0 0 0 1.2z" class="C"/></defs><g class="B C"><use href="#E" x="178.017" y="250.379"/></g><path d="M178.017 250.379l61.376 35.435m-61.376-35.435v-56.642m0 56.642L-1 353.734" class="B C M N O"/><g class="B C"><use href="#E" x="239.393" y="285.814"/></g><g class="N M"><path d="M239.393 285.814l-61.376-35.435m61.376 35.435l38.554-22.259" class="B C O"/><path d="M239.393 285.814V433" class="B P Q"/></g><g class="B C"><use href="#E" x="178.017" y="193.736"/></g><g class="N M"><path d="M178.017 193.736v56.642m0-56.642l46.165-26.653" class="B C O"/><path d="M178.017 193.736L-1 90.381" class="B P Q"/></g><g class="B C"><use href="#E" x="277.946" y="263.555"/></g><path d="M277.946 263.555l-38.554 22.259m38.554-22.259v-65.431m0 65.431L433 353.075" class="B C M N O"/><g class="B C"><use href="#E" x="277.946" y="198.124"/></g><g class="N M"><path d="M277.946 198.124v65.431m0-65.431l-53.765-31.041" class="B C O"/><path d="M277.946 198.124L433 108.604" class="B P Q"/></g><g class="B C"><use href="#E" x="224.182" y="167.083"/></g><path d="M224.182 167.083l-46.165 26.653m46.165-26.653l53.765 31.041m-53.765-31.041V-1" class="B C M N O"/><defs><clipPath id="F"><path d="M55.08 51.84h332.64v332.64H55.08z"/></clipPath></defs></svg>