<svg xmlns="http://www.w3.org/2000/svg" width="576" height="576" viewBox="0 0 432 432" xmlns:v="https://vecta.io/nano"><style><![CDATA[.B{clip-path:url(#D)}.C{stroke:#ff934f}.D{fill:#ff934f}.E{stroke:#2d3142}.F{fill:#2d3142}]]></style><g fill="#fff"><path d="M0 432h432V0H0z"/><path d="M55.08 384.48h332.64V51.84H55.08z"/></g><g fill="#ffe4c9"><path d="M221.501 206.212l-30.197 17.434 30.197 17.434 30.197-17.434z" class="B"/><path d="M221.501 206.212l-30.197 17.434v-34.869l30.197-17.434z" class="B"/><path d="M221.501 206.212l30.197 17.434v-34.869l-30.197-17.434zM-241.807-61.28l-30.197 17.434 30.197 17.434 30.197-17.434z" class="B"/><path d="M-241.807-61.28l-30.197 17.434v-34.869l30.197-17.434z" class="B"/><path d="M-241.807-61.28l30.197 17.434v-34.869l-30.197-17.434zm463.308 232.623l-30.197 17.434 30.197 17.434 30.197-17.434z" class="B"/><path d="M221.501 241.081l30.197-17.434v-34.869l-30.197 17.434z" class="B"/><path d="M191.304 223.646l30.197 17.434v-34.869l-30.197-17.434zM-241.807-96.149l-30.197 17.434 30.197 17.434 30.197-17.434z" class="B"/><path d="M-241.807-26.411l30.197-17.434v-34.869l-30.197 17.434z" class="B"/><path d="M-272.004-43.845l30.197 17.434V-61.28l-30.197-17.434z" class="B"/><path d="M221.501 206.212l-30.197 17.434-463.308-267.491 30.197-17.434z" class="B"/><path d="M251.699 223.646l-30.197-17.434L-241.807-61.28l30.197 17.434z" class="B"/><path d="M221.501 206.212v-34.869L-241.807-96.149l30.197 52.303z" class="B"/><path d="M251.699 223.646v-34.869L-211.609-78.714-241.807-61.28zm-60.395 0l30.197 17.434-463.308-267.491-30.197-17.434z" class="B"/><path d="M221.501 171.343l-30.197 17.434-463.308-267.491 30.197-17.434z" class="B"/><path d="M221.501 241.081l30.197-17.434L-211.61-43.844-241.807-26.41zm30.198-52.304l-30.197-17.434-463.308-267.491 30.197 17.434z" class="B"/><path d="M191.304 223.646v-34.869L-272.004-78.714l30.197 52.303z" class="B"/><path d="M221.501 241.081v-34.869L-241.807-61.28l-30.197 17.434z" class="B"/><path d="M191.304 188.777l30.197 17.434L-241.807-61.28l-30.197-17.434z" class="B"/><path d="M221.501 206.212l30.197-17.434-463.308-267.491-30.197 17.434z" class="B"/><path d="M221.501 206.212l-30.197 17.434 30.197 17.434 30.197-17.434z" class="B"/><path d="M221.501 206.212l-30.197 17.434v-34.869l30.197-17.434z" class="B"/><path d="M221.501 206.212l30.197 17.434v-34.869l-30.197-17.434zM684.81-61.28l-30.197 17.434 30.197 17.434 30.197-17.434z" class="B"/><path d="M684.81-61.28l-30.197 17.434v-34.869l30.197-17.434z" class="B"/><path d="M684.81-61.28l30.197 17.434v-34.869L684.81-96.149zM221.501 171.343l-30.197 17.434 30.197 17.434 30.197-17.434z" class="B"/><path d="M221.501 241.081l30.197-17.434v-34.869l-30.197 17.434z" class="B"/><path d="M191.304 223.646l30.197 17.434v-34.869l-30.197-17.434zM684.81-96.149l-30.197 17.434L684.81-61.28l30.197-17.434z" class="B"/><path d="M684.81-26.411l30.197-17.434v-34.869L684.81-61.28z" class="B"/><path d="M654.612-43.845l30.197 17.434V-61.28l-30.197-17.434z" class="B"/><path d="M221.501 206.212l-30.197 17.434L654.612-43.845 684.81-61.28z" class="B"/><path d="M251.699 223.646l-30.197-17.434L684.81-61.28l30.197 17.434z" class="B"/><path d="M221.501 206.212v-34.869L684.81-96.149l30.197 52.303z" class="B"/><path d="M251.699 223.646v-34.869L715.007-78.714 684.81-61.28z" class="B"/><path d="M191.304 223.646l30.197 17.434L684.81-26.411l-30.197-17.434zm30.197-52.303l-30.197 17.434L654.612-78.714l30.197-17.434z" class="B"/><path d="M221.501 241.081l30.197-17.434L715.007-43.845 684.81-26.411zm30.198-52.304l-30.197-17.434L684.81-96.149l30.197 17.434z" class="B"/><path d="M191.304 223.646v-34.869L654.612-78.714l30.197 52.303z" class="B"/><path d="M221.501 241.081v-34.869L684.81-61.28l-30.197 17.434z" class="B"/><path d="M191.304 188.777l30.197 17.434L684.81-61.28l-30.197-17.434z" class="B"/><path d="M221.501 206.212l30.197-17.434L715.007-78.714 684.81-61.28z" class="B"/></g><defs><path id="A" d="M0 2.4a2.4 2.4 0 0 0 1.697-.703A2.4 2.4 0 0 0 2.4 0a2.4 2.4 0 0 0-.703-1.697A2.4 2.4 0 0 0 0-2.4a2.4 2.4 0 0 0-1.697.703A2.4 2.4 0 0 0-2.4 0a2.4 2.4 0 0 0 .703 1.697A2.4 2.4 0 0 0 0 2.4z" class="C"/></defs><g class="B C D"><use href="#A" x="205.07" y="259.731"/></g><g class="B C D"><use href="#A" x="285.342" y="304.018"/></g><g class="B C D"><use href="#A" x="143.769" y="218.062"/></g><g class="B C D"><use href="#A" x="248.065" y="240.378"/></g><g class="B C D"><use href="#A" x="258.283" y="224.234"/></g><g class="B C D"><use href="#A" x="203.872" y="314.105"/></g><g class="B C D"><use href="#A" x="248.014" y="235.38"/></g><g class="B C D"><use href="#A" x="145.625" y="213.001"/></g><g class="B C D"><use href="#A" x="160.408" y="234.717"/></g><g class="B C D"><use href="#A" x="264.45" y="236.62"/></g><g class="B C D"><use href="#A" x="221.126" y="254.632"/></g><g class="B C D"><use href="#A" x="201.08" y="356.243"/></g><g class="B C D"><use href="#A" x="301.849" y="214.577"/></g><g class="B C D"><use href="#A" x="150.84" y="287.413"/></g><g class="B C D"><use href="#A" x="195.267" y="316.929"/></g><g class="B C D"><use href="#A" x="209.856" y="300.946"/></g><g class="B C D"><use href="#A" x="241.995" y="262.412"/></g><g class="B C D"><use href="#A" x="222.056" y="243.603"/></g><g class="B C D"><use href="#A" x="295.898" y="285.955"/></g><g class="B C D"><use href="#A" x="277.003" y="214.359"/></g><g class="B C D"><use href="#A" x="163.664" y="265.991"/></g><g class="B C D"><use href="#A" x="166.987" y="265.866"/></g><g class="B C D"><use href="#A" x="204.457" y="268.769"/></g><g class="B C D"><use href="#A" x="271.546" y="269.549"/></g><g class="B C D"><use href="#A" x="301.71" y="197.644"/></g><g class="B C D"><use href="#A" x="235.698" y="306.013"/></g><g class="B C D"><use href="#A" x="220.855" y="354.25"/></g><g class="B C D"><use href="#A" x="185.4" y="220.238"/></g><g class="B C D"><use href="#A" x="222.958" y="348.441"/></g><g class="B C D"><use href="#A" x="165.588" y="262.848"/></g><g class="B C D"><use href="#A" x="262.644" y="240.09"/></g><g class="B C D"><use href="#A" x="129.567" y="272.374"/></g><g class="B C D"><use href="#A" x="217.36" y="256.249"/></g><g class="B C D"><use href="#A" x="141.516" y="198.319"/></g><g class="B C D"><use href="#A" x="122.989" y="263.901"/></g><g class="B C D"><use href="#A" x="281.441" y="309.248"/></g><g class="B C D"><use href="#A" x="200.954" y="237.255"/></g><g class="B C D"><use href="#A" x="175.124" y="289.767"/></g><g class="B C D"><use href="#A" x="212.172" y="306.391"/></g><g class="B C D"><use href="#A" x="318.599" y="193.324"/></g><g class="B C D"><use href="#A" x="176.02" y="252.387"/></g><g class="B C D"><use href="#A" x="179.29" y="289.872"/></g><g class="B C D"><use href="#A" x="196.859" y="324.431"/></g><g class="B C D"><use href="#A" x="230.122" y="259.232"/></g><g class="B C D"><use href="#A" x="231.443" y="284.297"/></g><g class="B C D"><use href="#A" x="204.146" y="279.874"/></g><g class="B C D"><use href="#A" x="138.268" y="228.796"/></g><g class="B C D"><use href="#A" x="165.265" y="218.758"/></g><g class="B C D"><use href="#A" x="181.038" y="289.206"/></g><g class="B C D"><use href="#A" x="186.493" y="225.843"/></g><defs><path id="B" d="M0 2.4l2.4-4.8h-4.8z" stroke-linejoin="miter" class="E"/></defs><g class="B E F"><use href="#B" x="179.879" y="145.923"/></g><g class="B E F"><use href="#B" x="231.826" y="110.694"/></g><g class="B E F"><use href="#B" x="259.69" y="140.409"/></g><g class="B E F"><use href="#B" x="254.355" y="117.28"/></g><g class="B E F"><use href="#B" x="171.11" y="107.455"/></g><g class="B E F"><use href="#B" x="197.793" y="157.655"/></g><g class="B E F"><use href="#B" x="233.817" y="140.379"/></g><g class="B E F"><use href="#B" x="261.436" y="133.728"/></g><g class="B E F"><use href="#B" x="152.532" y="120.838"/></g><g class="B E F"><use href="#B" x="248.885" y="110.884"/></g><g class="B E F"><use href="#B" x="306.04" y="122.074"/></g><g class="B E F"><use href="#B" x="272.818" y="113.507"/></g><g class="B E F"><use href="#B" x="192.272" y="104.459"/></g><g class="B E F"><use href="#B" x="231.712" y="146.737"/></g><g class="B E F"><use href="#B" x="178.109" y="132.892"/></g><g class="B E F"><use href="#B" x="222.426" y="170.813"/></g><g class="B E F"><use href="#B" x="212.981" y="88.751"/></g><g class="B E F"><use href="#B" x="234.28" y="96.864"/></g><g class="B E F"><use href="#B" x="183.752" y="147.448"/></g><g class="B E F"><use href="#B" x="221.243" y="141.629"/></g><g class="B E F"><use href="#B" x="253.551" y="133.405"/></g><g class="B E F"><use href="#B" x="182.126" y="105.883"/></g><g class="B E F"><use href="#B" x="249.282" y="142.701"/></g><g class="B E F"><use href="#B" x="315.921" y="106.045"/></g><g class="B E F"><use href="#B" x="256.513" y="97.239"/></g><g class="B E F"><use href="#B" x="227.044" y="121.444"/></g><g class="B E F"><use href="#B" x="190.733" y="130.972"/></g><g class="B E F"><use href="#B" x="222.324" y="164.982"/></g><g class="B E F"><use href="#B" x="190.587" y="100.763"/></g><g class="B E F"><use href="#B" x="236.862" y="121.915"/></g><defs><path id="C" d="M0 1.2A1.2 1.2 0 0 0 .849.849 1.2 1.2 0 0 0 1.2 0a1.2 1.2 0 0 0-.351-.849A1.2 1.2 0 0 0 0-1.2a1.2 1.2 0 0 0-.849.351A1.2 1.2 0 0 0-1.2 0a1.2 1.2 0 0 0 .351.849A1.2 1.2 0 0 0 0 1.2z" stroke="#000"/></defs><g class="B"><use href="#C" x="221.501" y="206.212" stroke="#000"/></g><g fill="none" stroke-width="1.2"><path d="M221.501 206.212V433" stroke-dasharray="1.2,1.98" stroke="#d3d3d3" class="B"/><path d="M221.501 206.212L-1 77.75m222.501 128.462L433 84.103" class="B" stroke="#000" stroke-linecap="square"/></g><defs><clipPath id="D"><path d="M55.08 51.84h332.64v332.64H55.08z"/></clipPath></defs></svg>