<svg xmlns="http://www.w3.org/2000/svg" width="576" height="576" viewBox="0 0 432 432" xmlns:v="https://vecta.io/nano"><style><![CDATA[.B{clip-path:url(#I)}.C{stroke:#ff934f}.D{stroke:#2d3142}.E{fill:#ff934f}.F{fill:#2d3142}]]></style><g fill="#fff"><path d="M0 432h432V0H0z"/><path d="M55.08 384.48h332.64V51.84H55.08z"/></g><g fill="#ffe4c9"><path d="m239.457 222.422-1.94 1.12 1.94 1.12 1.94-1.12z" class="B"/><path d="M239.457 222.422l-1.94 1.12v-2.24l1.94-1.12zm0 0l1.94 1.12v-2.24l-1.94-1.12zm15.282 9.156l-1.94 1.12 1.94 1.12 1.94-1.12z" class="B"/><path d="M254.739 231.578l-1.94 1.12v-2.24l1.94-1.12zm0 0l1.94 1.12v-2.24l-1.94-1.12zm-15.282-11.396l-1.94 1.12 1.94 1.12 1.94-1.12zm0 4.481l1.94-1.12v-2.24l-1.94 1.12zm-1.941-1.12l1.94 1.12v-2.24l-1.94-1.12z" class="B"/><path d="M254.739 229.337l-1.94 1.12 1.94 1.12 1.94-1.12zm0 4.481l1.94-1.12v-2.24l-1.94 1.12zm-1.94-1.12l1.94 1.12v-2.24l-1.94-1.12z" class="B"/><path d="m239.457 222.422-1.94 1.12 15.282 9.156 1.94-1.12z" class="B"/><path d="m241.397 223.543-1.94-1.12 15.282 9.155 1.94 1.12z" class="B"/><path d="M239.457 222.422v-2.24l15.282 9.155 1.94 3.36z" class="B"/><path d="M241.397 223.543v-2.24l15.282 9.154-1.94 1.12zm-3.881 0l1.94 1.12 15.283 9.155-1.94-1.12z" class="B"/><path d="m239.457 224.663 1.94-1.12 15.282 9.155-1.94 1.12z" class="B"/><path d="m239.457 220.182-1.94 1.12 15.282 9.155 1.94-1.12z" class="B"/><path d="M241.397 221.302l-1.94-1.12 15.282 9.155 1.94 1.12zm-3.881 2.241v-2.24l15.283 9.154 1.94 3.36z" class="B"/><path d="M239.457 224.663v-2.24l15.282 9.155-1.94 1.12zm0-2.241l1.94-1.12 15.282 9.155-1.94 1.12z" class="B"/><path d="m237.516 221.302 1.94 1.12 15.283 9.156-1.94-1.12z" class="B"/><path d="m239.457 222.422-1.94 1.12 1.94 1.12 1.94-1.12z" class="B"/><path d="M239.457 222.422l-1.94 1.12v-2.24l1.94-1.12zm0 0l1.94 1.12v-2.24l-1.94-1.12z" class="B"/><path d="m238.941 221.934-1.94 1.12 1.94 1.12 1.94-1.12z" class="B"/><path d="M238.941 221.934l-1.94 1.12v-2.24l1.94-1.12zm0 0l1.94 1.12v-2.24l-1.94-1.12z" class="B"/><path d="M239.457 220.182l-1.94 1.12 1.94 1.12 1.94-1.12zm0 4.481l1.94-1.12v-2.24l-1.94 1.12zm-1.941-1.12l1.94 1.12v-2.24l-1.94-1.12z" class="B"/><path d="M238.941 219.693l-1.94 1.12 1.94 1.12 1.94-1.12zm0 4.481l1.94-1.12v-2.24l-1.94 1.12zm-1.94-1.12l1.94 1.12v-2.24l-1.94-1.12z" class="B"/><path d="m239.457 222.422-1.94 1.12-.516-.488 1.94-1.12z" class="B"/><path d="m241.397 223.543-1.94-1.12-.516-.49 1.94 1.121z" class="B"/><path d="M239.457 222.422v-2.24l-.516-.489 1.94 3.361z" class="B"/><path d="M241.397 223.543v-2.24l-.515-.49-1.94 1.12zm-3.881 0l1.94 1.12-.515-.489-1.94-1.12z" class="B"/><path d="M239.457 224.663l1.94-1.12-.515-.489-1.94 1.12zm0-4.481l-1.94 1.12-.516-.488 1.94-1.12zm1.94 1.12l-1.94-1.12-.516-.489 1.94 1.12z" class="B"/><path d="M237.516 223.543v-2.24l-.515-.49 1.94 3.361z" class="B"/><path d="M239.457 224.663v-2.24l-.516-.49-1.94 1.121z" class="B"/><path d="M239.457 222.422l1.94-1.12-.515-.488-1.94 1.12zm-1.941-1.12l1.94 1.12-.515-.488-1.94-1.12zm17.223 10.276l-1.94 1.12 1.94 1.12 1.94-1.12z" class="B"/><path d="M254.739 231.578l-1.94 1.12v-2.24l1.94-1.12zm0 0l1.94 1.12v-2.24l-1.94-1.12zm-15.282-9.156l-1.94 1.12 1.94 1.12 1.94-1.12z" class="B"/><path d="M239.457 222.422l-1.94 1.12v-2.24l1.94-1.12zm0 0l1.94 1.12v-2.24l-1.94-1.12zm15.282 6.915l-1.94 1.12 1.94 1.12 1.94-1.12zm0 4.481l1.94-1.12v-2.24l-1.94 1.12zm-1.94-1.12l1.94 1.12v-2.24l-1.94-1.12z" class="B"/><path d="M239.457 220.182l-1.94 1.12 1.94 1.12 1.94-1.12zm0 4.481l1.94-1.12v-2.24l-1.94 1.12zm-1.941-1.12l1.94 1.12v-2.24l-1.94-1.12z" class="B"/><path d="m254.739 231.578-1.94 1.12-15.283-9.155 1.94-1.12z" class="B"/><path d="m256.679 232.698-1.94-1.12-15.282-9.156 1.94 1.12z" class="B"/><path d="M254.739 231.578v-2.24l-15.282-9.156 1.94 3.36z" class="B"/><path d="M256.679 232.698v-2.24l-15.282-9.156-1.94 1.12zm-3.88 0l1.94 1.12-15.282-9.155-1.94-1.12z" class="B"/><path d="m254.739 233.818 1.94-1.12-15.282-9.155-1.94 1.12z" class="B"/><path d="m254.739 229.337-1.94 1.12-15.283-9.155 1.94-1.12z" class="B"/><path d="M256.679 230.457l-1.94-1.12-15.282-9.155 1.94 1.12zm-3.88 2.241v-2.24l-15.283-9.156 1.94 3.36z" class="B"/><path d="M254.739 233.818v-2.24l-15.282-9.156-1.94 1.12zm0-2.24l1.94-1.12-15.282-9.156-1.94 1.12z" class="B"/><path d="m252.799 230.457 1.94 1.12-15.282-9.155-1.94-1.12z" class="B"/><path d="m254.739 231.578-1.94 1.12 1.94 1.12 1.94-1.12z" class="B"/><path d="M254.739 231.578l-1.94 1.12v-2.24l1.94-1.12zm0 0l1.94 1.12v-2.24l-1.94-1.12zm11.161-3.648l-1.94 1.12 1.94 1.12 1.94-1.12z" class="B"/><path d="M265.9 227.93l-1.94 1.12v-2.24l1.94-1.12zm0 0l1.94 1.12v-2.24l-1.94-1.12zm-11.161 1.407l-1.94 1.12 1.94 1.12 1.94-1.12zm0 4.481l1.94-1.12v-2.24l-1.94 1.12zm-1.94-1.12l1.94 1.12v-2.24l-1.94-1.12z" class="B"/><path d="m265.9 225.69-1.94 1.12 1.94 1.12 1.94-1.12z" class="B"/><path d="M265.9 230.17l1.94-1.12v-2.24l-1.94 1.12zm-1.94-1.12l1.94 1.12v-2.24l-1.94-1.12z" class="B"/><path d="m254.739 231.578-1.94 1.12 11.162-3.647 1.94-1.12z" class="B"/><path d="m256.679 232.698-1.94-1.12 11.162-3.648 1.94 1.12z" class="B"/><path d="M254.739 231.578v-2.24l11.162-3.648 1.94 3.36z" class="B"/><path d="M256.679 232.698v-2.24l11.162-3.648-1.94 1.12z" class="B"/><path d="m252.799 232.698 1.94 1.12 11.162-3.647-1.94-1.12z" class="B"/><path d="M254.739 233.818l1.94-1.12 11.162-3.647-1.94 1.12zm0-4.481l-1.94 1.12 11.162-3.647 1.94-1.12z" class="B"/><path d="m256.679 230.457-1.94-1.12 11.162-3.647 1.94 1.12z" class="B"/><path d="M252.799 232.698v-2.24l11.162-3.648 1.94 3.36z" class="B"/><path d="M254.739 233.818v-2.24l11.162-3.648-1.94 1.12z" class="B"/><path d="m254.739 231.578 1.94-1.12 11.162-3.648-1.94 1.12z" class="B"/><path d="M252.799 230.457l1.94 1.12 11.162-3.647-1.94-1.12zm-22.307-18.237l-1.94 1.121 1.94 1.12 1.94-1.12z" class="B"/><path d="M230.492 212.22l-1.94 1.121v-2.24l1.94-1.12zm0 0l1.94 1.121v-2.24l-1.94-1.12zm2.285-18.197l-1.94 1.12 1.94 1.12 1.94-1.12z" class="B"/><path d="M232.777 194.023l-1.94 1.12v-2.24l1.94-1.12zm0 0l1.94 1.12v-2.24l-1.94-1.12zm-2.285 15.957l-1.94 1.12 1.94 1.12 1.94-1.12zm0 4.481l1.94-1.12v-2.24l-1.94 1.12zm-1.94-1.12l1.94 1.12v-2.24l-1.94-1.12z" class="B"/><path d="m232.777 191.783-1.94 1.12 1.94 1.12 1.94-1.12z" class="B"/><use href="#B" class="B"/><path d="M230.492 212.22l-1.94 1.121 2.285-18.198 1.94-1.12zm1.94 1.121l-1.94-1.12 2.285-18.198 1.94 1.12z" class="B"/><path d="M230.492 212.22v-2.24l2.285-18.197 1.94 3.36z" class="B"/><path d="M232.432 213.341v-2.24l2.285-18.198-1.94 1.12z" class="B"/><path d="m228.552 213.341 1.94 1.12 2.285-18.197-1.94-1.12z" class="B"/><path d="M230.492 214.461l1.94-1.12 2.285-18.198-1.94 1.12zm0-4.481l-1.94 1.12 2.285-18.197 1.94-1.12z" class="B"/><path d="m232.432 211.1-1.94-1.12 2.285-18.197 1.94 1.12z" class="B"/><path d="M228.552 213.341v-2.24l2.285-18.198 1.94 3.36z" class="B"/><path d="M230.492 214.461v-2.24l2.285-18.198-1.94 1.12z" class="B"/><path d="m230.492 212.22 1.94-1.12 2.285-18.197-1.94 1.12z" class="B"/><path d="m228.552 211.1 1.94 1.12 2.285-18.197-1.94-1.12z" class="B"/><path d="m230.492 212.22-1.94 1.121 1.94 1.12 1.94-1.12z" class="B"/><path d="M230.492 212.22l-1.94 1.121v-2.24l1.94-1.12zm0 0l1.94 1.121v-2.24l-1.94-1.12zm8.449 9.714l-1.94 1.12 1.94 1.12 1.94-1.12z" class="B"/><path d="M238.941 221.934l-1.94 1.12v-2.24l1.94-1.12zm0 0l1.94 1.12v-2.24l-1.94-1.12zm-8.449-11.954l-1.94 1.12 1.94 1.12 1.94-1.12zm0 4.481l1.94-1.12v-2.24l-1.94 1.12zm-1.94-1.12l1.94 1.12v-2.24l-1.94-1.12z" class="B"/><path d="M238.941 219.693l-1.94 1.12 1.94 1.12 1.94-1.12zm0 4.481l1.94-1.12v-2.24l-1.94 1.12zm-1.94-1.12l1.94 1.12v-2.24l-1.94-1.12z" class="B"/><path d="m230.492 212.22-1.94 1.121 8.45 9.713 1.94-1.12z" class="B"/><path d="m232.432 213.341-1.94-1.12 8.45 9.713 1.94 1.12z" class="B"/><path d="M230.492 212.22v-2.24l8.45 9.713 1.94 3.361z" class="B"/><path d="M232.432 213.341v-2.24l8.45 9.713-1.94 1.12zm-3.88 0l1.94 1.12 8.45 9.713-1.94-1.12z" class="B"/><path d="m230.492 214.461 1.94-1.12 8.45 9.713-1.94 1.12z" class="B"/><path d="M230.492 209.98l-1.94 1.12 8.45 9.714 1.94-1.12zm1.94 1.12l-1.94-1.12 8.45 9.713 1.94 1.12zm-3.88 2.241v-2.24l8.45 9.713 1.94 3.36z" class="B"/><path d="M230.492 214.461v-2.24l8.45 9.713-1.94 1.12zm0-2.241l1.94-1.12 8.45 9.714-1.94 1.12z" class="B"/><path d="M228.552 211.1l1.94 1.12 8.45 9.714-1.94-1.12zm4.225-17.077l-1.94 1.12 1.94 1.12 1.94-1.12z" class="B"/><path d="M232.777 194.023l-1.94 1.12v-2.24l1.94-1.12zm0 0l1.94 1.12v-2.24l-1.94-1.12zm-2.285 18.197l-1.94 1.121 1.94 1.12 1.94-1.12z" class="B"/><path d="M230.492 212.22l-1.94 1.121v-2.24l1.94-1.12zm0 0l1.94 1.121v-2.24l-1.94-1.12zm2.285-20.437l-1.94 1.12 1.94 1.12 1.94-1.12z" class="B"/><path d="M232.777 196.264l1.94-1.12v-2.241l-1.94 1.12zm-1.94-1.121l1.94 1.12v-2.24l-1.94-1.12zm-.345 14.837l-1.94 1.12 1.94 1.12 1.94-1.12zm0 4.481l1.94-1.12v-2.24l-1.94 1.12zm-1.94-1.12l1.94 1.12v-2.24l-1.94-1.12z" class="B"/><path d="M232.777 194.023l-1.94 1.12-2.285 18.198 1.94-1.12zm1.94 1.12l-1.94-1.12-2.285 18.198 1.94 1.12z" class="B"/><path d="M232.777 194.023v-2.24l-2.285 18.197 1.94 3.361z" class="B"/><path d="M234.717 195.143v-2.24l-2.285 18.198-1.94 1.12z" class="B"/><path d="M230.837 195.143l1.94 1.12-2.285 18.198-1.94-1.12zm1.94 1.121l1.94-1.12-2.285 18.197-1.94 1.12z" class="B"/><path d="m232.777 191.783-1.94 1.12-2.285 18.198 1.94-1.12z" class="B"/><path d="m234.717 192.903-1.94-1.12-2.285 18.197 1.94 1.12z" class="B"/><path d="M230.837 195.143v-2.24l-2.285 18.198 1.94 3.36z" class="B"/><path d="M232.777 196.264v-2.24l-2.285 18.197-1.94 1.12z" class="B"/><path d="m232.777 194.023 1.94-1.12-2.285 18.198-1.94 1.12z" class="B"/><path d="M230.837 192.903l1.94 1.12-2.285 18.198-1.94-1.12zm8.104 29.031l-1.94 1.12 1.94 1.12 1.94-1.12z" class="B"/><path d="M238.941 221.934l-1.94 1.12v-2.24l1.94-1.12zm0 0l1.94 1.12v-2.24l-1.94-1.12zm.516.488l-1.94 1.12 1.94 1.12 1.94-1.12z" class="B"/><path d="M239.457 222.422l-1.94 1.12v-2.24l1.94-1.12zm0 0l1.94 1.12v-2.24l-1.94-1.12z" class="B"/><path d="M238.941 219.693l-1.94 1.12 1.94 1.12 1.94-1.12zm0 4.481l1.94-1.12v-2.24l-1.94 1.12zm-1.94-1.12l1.94 1.12v-2.24l-1.94-1.12z" class="B"/><path d="M239.457 220.182l-1.94 1.12 1.94 1.12 1.94-1.12zm0 4.481l1.94-1.12v-2.24l-1.94 1.12zm-1.941-1.12l1.94 1.12v-2.24l-1.94-1.12z" class="B"/><path d="M238.941 221.934l-1.94 1.12.515.489 1.94-1.12zm1.941 1.12l-1.94-1.12.515.488 1.94 1.12z" class="B"/><path d="M238.941 221.934v-2.24l.516.488 1.94 3.36z" class="B"/><path d="M240.882 223.054v-2.24l.515.488-1.94 1.12zm-3.881 0l1.94 1.12.516.489-1.94-1.12z" class="B"/><path d="M238.941 224.174l1.94-1.12.516.489-1.94 1.12zm0-4.481l-1.94 1.12.515.49 1.94-1.12z" class="B"/><path d="M240.882 220.814l-1.94-1.12.515.488 1.94 1.12zm-3.881 2.24v-2.24l.515.488 1.94 3.36z" class="B"/><path d="M238.941 224.174v-2.24l.516.488-1.94 1.12z" class="B"/><path d="m238.941 221.934 1.94-1.12.516.488-1.94 1.12z" class="B"/><path d="m237.001 220.814 1.94 1.12.516.488-1.94-1.12z" class="B"/><path d="m238.941 221.934-1.94 1.12 1.94 1.12 1.94-1.12z" class="B"/><path d="M238.941 221.934l-1.94 1.12v-2.24l1.94-1.12zm0 0l1.94 1.12v-2.24l-1.94-1.12zm-8.449-9.714l-1.94 1.121 1.94 1.12 1.94-1.12z" class="B"/><path d="M230.492 212.22l-1.94 1.121v-2.24l1.94-1.12zm0 0l1.94 1.121v-2.24l-1.94-1.12zm8.449 7.473l-1.94 1.12 1.94 1.12 1.94-1.12zm0 4.481l1.94-1.12v-2.24l-1.94 1.12zm-1.94-1.12l1.94 1.12v-2.24l-1.94-1.12z" class="B"/><path d="M230.492 209.98l-1.94 1.12 1.94 1.12 1.94-1.12zm0 4.481l1.94-1.12v-2.24l-1.94 1.12zm-1.94-1.12l1.94 1.12v-2.24l-1.94-1.12z" class="B"/><path d="M238.941 221.934l-1.94 1.12-8.45-9.713 1.941-1.12zm1.941 1.12l-1.94-1.12-8.45-9.713 1.94 1.12z" class="B"/><path d="M238.941 221.934v-2.24l-8.449-9.714 1.94 3.361z" class="B"/><path d="M240.882 223.054v-2.24l-8.45-9.713-1.94 1.12zm-3.881 0l1.94 1.12-8.449-9.713-1.94-1.12z" class="B"/><path d="m238.941 224.174 1.94-1.12-8.449-9.713-1.94 1.12z" class="B"/><path d="M238.941 219.693l-1.94 1.12-8.45-9.712 1.941-1.12zm1.941 1.121l-1.94-1.12-8.45-9.714 1.94 1.12z" class="B"/><path d="M237.001 223.054v-2.24l-8.45-9.713 1.941 3.36z" class="B"/><path d="M238.941 224.174v-2.24l-8.449-9.713-1.94 1.12z" class="B"/><path d="m238.941 221.934 1.94-1.12-8.449-9.713-1.94 1.12z" class="B"/><path d="M237.001 220.814l1.94 1.12-8.449-9.713-1.94-1.12zm28.899 7.116l-1.94 1.12 1.94 1.12 1.94-1.12z" class="B"/><path d="M265.9 227.93l-1.94 1.12v-2.24l1.94-1.12zm0 0l1.94 1.12v-2.24l-1.94-1.12zm-11.161 3.648l-1.94 1.12 1.94 1.12 1.94-1.12z" class="B"/><path d="M254.739 231.578l-1.94 1.12v-2.24l1.94-1.12zm0 0l1.94 1.12v-2.24l-1.94-1.12zm11.161-5.888l-1.94 1.12 1.94 1.12 1.94-1.12z" class="B"/><path d="M265.9 230.17l1.94-1.12v-2.24l-1.94 1.12zm-1.94-1.12l1.94 1.12v-2.24l-1.94-1.12zm-9.221.287l-1.94 1.12 1.94 1.12 1.94-1.12zm0 4.481l1.94-1.12v-2.24l-1.94 1.12zm-1.94-1.12l1.94 1.12v-2.24l-1.94-1.12z" class="B"/><path d="m265.9 227.93-1.94 1.12-11.161 3.648 1.94-1.12z" class="B"/><path d="m267.84 229.05-1.94-1.12-11.161 3.648 1.94 1.12z" class="B"/><path d="M265.9 227.93v-2.24l-11.161 3.647 1.94 3.36z" class="B"/><path d="M267.84 229.05v-2.24l-11.161 3.647-1.94 1.12z" class="B"/><path d="m263.96 229.05 1.94 1.12-11.161 3.648-1.94-1.12z" class="B"/><path d="M265.9 230.17l1.94-1.12-11.161 3.648-1.94 1.12zm0-4.48l-1.94 1.12-11.161 3.647 1.94-1.12z" class="B"/><path d="m267.84 226.81-1.94-1.12-11.161 3.647 1.94 1.12z" class="B"/><path d="M263.96 229.05v-2.24l-11.161 3.647 1.94 3.36z" class="B"/><path d="M265.9 230.17v-2.24l-11.161 3.648-1.94 1.12z" class="B"/><path d="m265.9 227.93 1.94-1.12-11.161 3.647-1.94 1.12z" class="B"/><path d="M263.96 226.81l1.94 1.12-11.161 3.648-1.94-1.12zm-35.24-54.009l-1.94 1.12 1.94 1.12 1.94-1.12z" class="B"/><path d="M228.72 172.801l-1.94 1.12v-2.24l1.94-1.12zm0 0l1.94 1.12v-2.24l-1.94-1.12zm-12.274-12.236l-1.94 1.12 1.94 1.12 1.94-1.12z" class="B"/><path d="M216.446 160.565l-1.94 1.12v-2.24l1.94-1.12zm0 0l1.94 1.12v-2.24l-1.94-1.12zm12.274 9.996l-1.94 1.12 1.94 1.12 1.94-1.12zm0 4.481l1.94-1.12v-2.24l-1.94 1.12zm-1.94-1.12l1.94 1.12v-2.24l-1.94-1.12z" class="B"/><path d="M216.446 158.324l-1.94 1.12 1.94 1.12 1.94-1.12zm0 4.481l1.94-1.12v-2.24l-1.94 1.12zm-1.94-1.12l1.94 1.12v-2.24l-1.94-1.12z" class="B"/><path d="m228.72 172.801-1.94 1.12-12.274-12.236 1.94-1.12z" class="B"/><path d="m230.66 173.922-1.94-1.12-12.274-12.237 1.94 1.12z" class="B"/><path d="M228.72 172.801v-2.24l-12.274-12.237 1.94 3.36z" class="B"/><path d="M230.66 173.922v-2.24l-12.274-12.237-1.94 1.12zm-3.88 0l1.94 1.12-12.274-12.237-1.94-1.12z" class="B"/><path d="m228.72 175.042 1.94-1.12-12.274-12.237-1.94 1.12z" class="B"/><path d="M228.72 170.561l-1.94 1.12-12.274-12.236 1.94-1.12zm1.94 1.12l-1.94-1.12-12.274-12.237 1.94 1.12z" class="B"/><path d="M226.78 173.922v-2.24l-12.274-12.237 1.94 3.36z" class="B"/><path d="M228.72 175.042v-2.24l-12.274-12.237-1.94 1.12zm0-2.241l1.94-1.12-12.274-12.236-1.94 1.12z" class="B"/><path d="m226.78 171.681 1.94 1.12-12.274-12.236-1.94-1.12z" class="B"/><path d="m216.446 160.565-1.94 1.12 1.94 1.12 1.94-1.12z" class="B"/><path d="M216.446 160.565l-1.94 1.12v-2.24l1.94-1.12zm0 0l1.94 1.12v-2.24l-1.94-1.12zm12.274 12.236l-1.94 1.12 1.94 1.12 1.94-1.12z" class="B"/><path d="M228.72 172.801l-1.94 1.12v-2.24l1.94-1.12zm0 0l1.94 1.12v-2.24l-1.94-1.12zm-12.274-14.477l-1.94 1.12 1.94 1.12 1.94-1.12zm0 4.481l1.94-1.12v-2.24l-1.94 1.12zm-1.94-1.12l1.94 1.12v-2.24l-1.94-1.12z" class="B"/><path d="M228.72 170.561l-1.94 1.12 1.94 1.12 1.94-1.12zm0 4.481l1.94-1.12v-2.24l-1.94 1.12zm-1.94-1.12l1.94 1.12v-2.24l-1.94-1.12z" class="B"/><path d="M216.446 160.565l-1.94 1.12 12.274 12.237 1.94-1.12zm1.94 1.12l-1.94-1.12L228.72 172.8l1.94 1.12z" class="B"/><path d="M216.446 160.565v-2.24l12.274 12.236 1.94 3.36z" class="B"/><path d="M218.386 161.685v-2.24l12.274 12.236-1.94 1.12zm-3.88 0l1.94 1.12 12.274 12.237-1.94-1.12z" class="B"/><path d="m216.446 162.805 1.94-1.12 12.274 12.237-1.94 1.12z" class="B"/><path d="m216.446 158.324-1.94 1.12 12.274 12.237 1.94-1.12z" class="B"/><path d="M218.386 159.445l-1.94-1.12 12.274 12.236 1.94 1.12zm-3.88 2.24v-2.24l12.274 12.236 1.94 3.36z" class="B"/><path d="M216.446 162.805v-2.24L228.72 172.8l-1.94 1.12z" class="B"/><path d="m216.446 160.565 1.94-1.12 12.274 12.236-1.94 1.12z" class="B"/><path d="m214.506 159.445 1.94 1.12L228.72 172.8l-1.94-1.12z" class="B"/><path d="m216.446 160.565-1.94 1.12 1.94 1.12 1.94-1.12z" class="B"/><path d="M216.446 160.565l-1.94 1.12v-2.24l1.94-1.12zm0 0l1.94 1.12v-2.24l-1.94-1.12zm-1.771 8.573l-1.94 1.12 1.94 1.12 1.94-1.12z" class="B"/><path d="M214.675 169.138l-1.94 1.12v-2.24l1.94-1.12zm0 0l1.94 1.12v-2.24l-1.94-1.12zm1.771-10.814l-1.94 1.12 1.94 1.12 1.94-1.12zm0 4.481l1.94-1.12v-2.24l-1.94 1.12zm-1.94-1.12l1.94 1.12v-2.24l-1.94-1.12z" class="B"/><path d="M214.675 166.897l-1.94 1.12 1.94 1.12 1.94-1.12zm0 4.481l1.94-1.12v-2.24l-1.94 1.12zm-1.941-1.12l1.94 1.12v-2.24l-1.94-1.12z" class="B"/><path d="M216.446 160.565l-1.94 1.12-1.772 8.573 1.94-1.12zm1.94 1.12l-1.94-1.12-1.771 8.573 1.94 1.12z" class="B"/><path d="M216.446 160.565v-2.24l-1.771 8.572 1.94 3.36z" class="B"/><path d="M218.386 161.685v-2.24l-1.771 8.572-1.94 1.12z" class="B"/><path d="m214.506 161.685 1.94 1.12-1.771 8.573-1.94-1.12z" class="B"/><path d="M216.446 162.805l1.94-1.12-1.771 8.573-1.94 1.12zm0-4.481l-1.94 1.12-1.772 8.573 1.94-1.12z" class="B"/><path d="M218.386 159.445l-1.94-1.12-1.771 8.572 1.94 1.12zm-3.88 2.24v-2.24l-1.772 8.572 1.94 3.361z" class="B"/><path d="M216.446 162.805v-2.24l-1.771 8.573-1.94 1.12z" class="B"/><path d="m216.446 160.565 1.94-1.12-1.771 8.572-1.94 1.12z" class="B"/><path d="M214.506 159.445l1.94 1.12-1.771 8.573-1.94-1.12zm-.393 17.198l-1.94 1.12 1.94 1.12 1.94-1.12z" class="B"/><path d="M214.113 176.643l-1.94 1.12v-2.24l1.94-1.12zm0 0l1.94 1.12v-2.24l-1.94-1.12zm-16.206 17.698l-1.94 1.12 1.94 1.12 1.94-1.12z" class="B"/><path d="M197.907 194.341l-1.94 1.12v-2.24l1.94-1.12zm0 0l1.94 1.12v-2.24l-1.94-1.12zm16.206-19.938l-1.94 1.12 1.94 1.12 1.94-1.12zm0 4.481l1.94-1.12v-2.24l-1.94 1.12z" class="B"/><path d="m212.173 177.763 1.94 1.12v-2.24l-1.94-1.12zM197.907 192.1l-1.94 1.12 1.94 1.121 1.94-1.12z" class="B"/><path d="M197.907 196.581l1.94-1.12v-2.24l-1.94 1.12zm-1.94-1.12l1.94 1.12v-2.24l-1.94-1.12z" class="B"/><path d="m214.113 176.643-1.94 1.12-16.206 17.698 1.94-1.12z" class="B"/><path d="m216.053 177.763-1.94-1.12-16.206 17.698 1.94 1.12z" class="B"/><path d="M214.113 176.643v-2.24L197.907 192.1l1.94 3.36z" class="B"/><path d="M216.053 177.763v-2.24l-16.205 17.698-1.94 1.12z" class="B"/><path d="M212.173 177.763l1.94 1.12-16.206 17.698-1.94-1.12zm1.94 1.121l1.94-1.12-16.205 17.697-1.94 1.12zm0-4.481l-1.94 1.12-16.206 17.698 1.94-1.12z" class="B"/><path d="m216.053 175.523-1.94-1.12-16.206 17.698 1.94 1.12z" class="B"/><path d="M212.173 177.763v-2.24l-16.206 17.698 1.94 3.36z" class="B"/><path d="M214.113 178.884v-2.24l-16.206 17.697-1.94 1.12z" class="B"/><path d="M214.113 176.643l1.94-1.12-16.205 17.698-1.94 1.12zm-1.94-1.12l1.94 1.12-16.206 17.698-1.94-1.12z" class="B"/><path d="m197.907 194.341-1.94 1.12 1.94 1.12 1.94-1.12z" class="B"/><path d="M197.907 194.341l-1.94 1.12v-2.24l1.94-1.12zm0 0l1.94 1.12v-2.24l-1.94-1.12zm16.206-17.698l-1.94 1.12 1.94 1.12 1.94-1.12z" class="B"/><path d="M214.113 176.643l-1.94 1.12v-2.24l1.94-1.12zm0 0l1.94 1.12v-2.24l-1.94-1.12zM197.907 192.1l-1.94 1.12 1.94 1.121 1.94-1.12z" class="B"/><path d="M197.907 196.581l1.94-1.12v-2.24l-1.94 1.12zm-1.94-1.12l1.94 1.12v-2.24l-1.94-1.12zm18.146-21.058l-1.94 1.12 1.94 1.12 1.94-1.12zm0 4.481l1.94-1.12v-2.24l-1.94 1.12z" class="B"/><path d="m212.173 177.763 1.94 1.12v-2.24l-1.94-1.12z" class="B"/><path d="M197.907 194.341l-1.94 1.12 16.206-17.698 1.94-1.12zm1.941 1.12l-1.94-1.12 16.205-17.698 1.94 1.12z" class="B"/><path d="M197.907 194.341v-2.24l16.206-17.698 1.94 3.36z" class="B"/><path d="M199.848 195.461v-2.24l16.205-17.698-1.94 1.12z" class="B"/><path d="m195.967 195.461 1.94 1.12 16.206-17.697-1.94-1.12z" class="B"/><path d="M197.907 196.581l1.94-1.12 16.206-17.698-1.94 1.12zm0-4.481l-1.94 1.12 16.206-17.697 1.94-1.12zm1.941 1.12l-1.94-1.12 16.205-17.697 1.94 1.12z" class="B"/><path d="M195.967 195.461v-2.24l16.206-17.698 1.94 3.36z" class="B"/><path d="M197.907 196.581v-2.24l16.206-17.698-1.94 1.12z" class="B"/><path d="m197.907 194.341 1.94-1.12 16.206-17.698-1.94 1.12z" class="B"/><path d="m195.967 193.22 1.94 1.121 16.206-17.698-1.94-1.12z" class="B"/><path d="m197.907 194.341-1.94 1.12 1.94 1.12 1.94-1.12z" class="B"/><path d="M197.907 194.341l-1.94 1.12v-2.24l1.94-1.12zm0 0l1.94 1.12v-2.24l-1.94-1.12zm-2.289 2.947l-1.94 1.12 1.94 1.12 1.94-1.12z" class="B"/><path d="M195.618 197.288l-1.94 1.12v-2.24l1.94-1.12zm0 0l1.94 1.12v-2.24l-1.94-1.12zm2.289-5.188l-1.94 1.12 1.94 1.121 1.94-1.12z" class="B"/><path d="M197.907 196.581l1.94-1.12v-2.24l-1.94 1.12zm-1.94-1.12l1.94 1.12v-2.24l-1.94-1.12z" class="B"/><path d="M195.618 195.048l-1.94 1.12 1.94 1.12 1.94-1.12zm0 4.481l1.94-1.12v-2.24l-1.94 1.12z" class="B"/><path d="m193.678 198.408 1.94 1.12v-2.24l-1.94-1.12z" class="B"/><path d="M197.907 194.341l-1.94 1.12-2.29 2.947 1.941-1.12zm1.941 1.12l-1.94-1.12-2.29 2.947 1.94 1.12z" class="B"/><path d="M197.907 194.341v-2.24l-2.289 2.947 1.94 3.36z" class="B"/><path d="M199.848 195.461v-2.24l-2.29 2.947-1.94 1.12z" class="B"/><path d="m195.967 195.461 1.94 1.12-2.289 2.948-1.94-1.12z" class="B"/><path d="M197.907 196.581l1.94-1.12-2.289 2.947-1.94 1.12zm0-4.481l-1.94 1.12-2.29 2.948 1.941-1.12zm1.941 1.12l-1.94-1.12-2.29 2.948 1.94 1.12z" class="B"/><path d="M195.967 195.461v-2.24l-2.29 2.947 1.941 3.36z" class="B"/><path d="M197.907 196.581v-2.24l-2.289 2.947-1.94 1.12z" class="B"/><path d="m197.907 194.341 1.94-1.12-2.289 2.947-1.94 1.12z" class="B"/><path d="M195.967 193.22l1.94 1.121-2.289 2.947-1.94-1.12zm35.933-.81l-1.94 1.12 1.94 1.12 1.94-1.12z" class="B"/><path d="M231.9 192.41l-1.94 1.12v-2.24l1.94-1.12zm0 0l1.94 1.12v-2.24l-1.94-1.12zm.877 1.613l-1.94 1.12 1.94 1.12 1.94-1.12z" class="B"/><path d="M232.777 194.023l-1.94 1.12v-2.24l1.94-1.12zm0 0l1.94 1.12v-2.24l-1.94-1.12z" class="B"/><path d="M231.9 190.17l-1.94 1.12 1.94 1.12 1.94-1.12zm0 4.48l1.94-1.12v-2.24l-1.94 1.12z" class="B"/><path d="m229.96 193.53 1.94 1.12v-2.24l-1.94-1.12z" class="B"/><path d="m232.777 191.783-1.94 1.12 1.94 1.12 1.94-1.12z" class="B"/><use href="#B" class="B"/><path d="m231.9 192.41-1.94 1.12.877 1.613 1.94-1.12z" class="B"/><path d="m233.84 193.53-1.94-1.12.877 1.613 1.94 1.12z" class="B"/><path d="M231.9 192.41v-2.24l.877 1.613 1.94 3.36z" class="B"/><path d="M233.84 193.53v-2.24l.877 1.613-1.94 1.12zm-3.88 0l1.94 1.12.877 1.614-1.94-1.12zm1.94 1.12l1.94-1.12.877 1.613-1.94 1.12zm0-4.48l-1.94 1.12.877 1.613 1.94-1.12z" class="B"/><path d="M233.84 191.29l-1.94-1.12.877 1.613 1.94 1.12zm-3.88 2.24v-2.24l.877 1.613 1.94 3.36z" class="B"/><path d="M231.9 194.65v-2.24l.877 1.613-1.94 1.12z" class="B"/><path d="m231.9 192.41 1.94-1.12.877 1.613-1.94 1.12z" class="B"/><path d="m229.96 191.29 1.94 1.12.877 1.613-1.94-1.12z" class="B"/><path d="m231.9 192.41-1.94 1.12 1.94 1.12 1.94-1.12z" class="B"/><path d="M231.9 192.41l-1.94 1.12v-2.24l1.94-1.12zm0 0l1.94 1.12v-2.24l-1.94-1.12zm-3.18-19.609l-1.94 1.12 1.94 1.12 1.94-1.12z" class="B"/><path d="M228.72 172.801l-1.94 1.12v-2.24l1.94-1.12zm0 0l1.94 1.12v-2.24l-1.94-1.12zm3.18 17.369l-1.94 1.12 1.94 1.12 1.94-1.12zm0 4.48l1.94-1.12v-2.24l-1.94 1.12z" class="B"/><path d="M229.96 193.53l1.94 1.12v-2.24l-1.94-1.12zm-1.24-22.969l-1.94 1.12 1.94 1.12 1.94-1.12zm0 4.481l1.94-1.12v-2.24l-1.94 1.12zm-1.94-1.12l1.94 1.12v-2.24l-1.94-1.12z" class="B"/><path d="M231.9 192.41l-1.94 1.12-3.18-19.608 1.94-1.12zm1.94 1.12l-1.94-1.12-3.18-19.609 1.94 1.12z" class="B"/><path d="M231.9 192.41v-2.24l-3.18-19.609 1.94 3.36z" class="B"/><path d="M233.84 193.53v-2.24l-3.18-19.609-1.94 1.12zm-3.88 0l1.94 1.12-3.18-19.608-1.94-1.12z" class="B"/><path d="m231.9 194.65 1.94-1.12-3.18-19.608-1.94 1.12z" class="B"/><path d="m231.9 190.17-1.94 1.12-3.18-19.609 1.94-1.12z" class="B"/><path d="M233.84 191.29l-1.94-1.12-3.18-19.609 1.94 1.12zm-3.88 2.24v-2.24l-3.18-19.609 1.94 3.36z" class="B"/><path d="M231.9 194.65v-2.24l-3.18-19.609-1.94 1.12z" class="B"/><path d="m231.9 192.41 1.94-1.12-3.18-19.609-1.94 1.12z" class="B"/><path d="M229.96 191.29l1.94 1.12-3.18-19.609-1.94-1.12zm-43.12 8.585l-1.94 1.12 1.94 1.12 1.94-1.12z" class="B"/><path d="M186.84 199.875l-1.94 1.12v-2.24l1.94-1.12zm0 0l1.94 1.12v-2.24l-1.94-1.12zm-4.155 1.385l-1.94 1.12 1.94 1.12 1.94-1.12z" class="B"/><path d="M182.685 201.26l-1.94 1.12v-2.24l1.94-1.12zm0 0l1.94 1.12v-2.24l-1.94-1.12zm4.155-3.626l-1.94 1.12 1.94 1.12 1.94-1.12zm0 4.481l1.94-1.12v-2.24l-1.94 1.12zm-1.94-1.12l1.94 1.12v-2.24l-1.94-1.12z" class="B"/><path d="m182.685 199.02-1.94 1.12 1.94 1.12 1.94-1.12z" class="B"/><path d="M182.685 203.5l1.94-1.12v-2.24l-1.94 1.12zm-1.94-1.12l1.94 1.12v-2.24l-1.94-1.12z" class="B"/><path d="m186.84 199.875-1.94 1.12-4.155 1.385 1.94-1.12z" class="B"/><path d="m188.78 200.995-1.94-1.12-4.155 1.385 1.94 1.12z" class="B"/><path d="M186.84 199.875v-2.24l-4.155 1.385 1.94 3.36z" class="B"/><path d="M188.78 200.995v-2.24l-4.155 1.385-1.94 1.12z" class="B"/><path d="m184.9 200.995 1.94 1.12-4.155 1.385-1.94-1.12z" class="B"/><path d="M186.84 202.115l1.94-1.12-4.155 1.385-1.94 1.12zm0-4.481l-1.94 1.12-4.155 1.386 1.94-1.12z" class="B"/><path d="m188.78 198.754-1.94-1.12-4.155 1.386 1.94 1.12z" class="B"/><path d="M184.9 200.995v-2.24l-4.155 1.385 1.94 3.36z" class="B"/><path d="M186.84 202.115v-2.24l-4.155 1.385-1.94 1.12z" class="B"/><path d="m186.84 199.875 1.94-1.12-4.155 1.385-1.94 1.12z" class="B"/><path d="m184.9 198.754 1.94 1.12-4.155 1.386-1.94-1.12z" class="B"/><path d="m186.84 199.875-1.94 1.12 1.94 1.12 1.94-1.12z" class="B"/><path d="M186.84 199.875l-1.94 1.12v-2.24l1.94-1.12zm0 0l1.94 1.12v-2.24l-1.94-1.12z" class="B"/><path d="m187.587 199.643-1.94 1.12 1.94 1.12 1.94-1.12z" class="B"/><path d="M187.587 199.643l-1.94 1.12v-2.24l1.94-1.12zm0 0l1.94 1.12v-2.24l-1.94-1.12z" class="B"/><path d="M186.84 197.634l-1.94 1.12 1.94 1.12 1.94-1.12zm0 4.481l1.94-1.12v-2.24l-1.94 1.12zm-1.94-1.12l1.94 1.12v-2.24l-1.94-1.12z" class="B"/><path d="M187.587 197.403l-1.94 1.12 1.94 1.12 1.94-1.12zm0 4.481l1.94-1.12v-2.24l-1.94 1.12z" class="B"/><path d="m185.647 200.764 1.94 1.12v-2.24l-1.94-1.12z" class="B"/><path d="m186.84 199.875-1.94 1.12.747-.231 1.94-1.12z" class="B"/><path d="m188.78 200.995-1.94-1.12.747-.232 1.94 1.12z" class="B"/><path d="M186.84 199.875v-2.24l.747-.232 1.94 3.36z" class="B"/><path d="M188.78 200.995v-2.24l.747-.232-1.94 1.12zm-3.88 0l1.94 1.12.747-.231-1.94-1.12z" class="B"/><path d="M186.84 202.115l1.94-1.12.747-.231-1.94 1.12zm0-4.481l-1.94 1.12.747-.23 1.94-1.12z" class="B"/><path d="M188.78 198.754l-1.94-1.12.747-.23 1.94 1.12zm-3.88 2.241v-2.24l.747-.232 1.94 3.36z" class="B"/><path d="M186.84 202.115v-2.24l.747-.232-1.94 1.12z" class="B"/><path d="m186.84 199.875 1.94-1.12.747-.232-1.94 1.12z" class="B"/><path d="M184.9 198.754l1.94 1.12.747-.23-1.94-1.12zm-2.215 2.506l-1.94 1.12 1.94 1.12 1.94-1.12z" class="B"/><path d="M182.685 201.26l-1.94 1.12v-2.24l1.94-1.12zm0 0l1.94 1.12v-2.24l-1.94-1.12zm4.155-1.385l-1.94 1.12 1.94 1.12 1.94-1.12z" class="B"/><path d="M186.84 199.875l-1.94 1.12v-2.24l1.94-1.12zm0 0l1.94 1.12v-2.24l-1.94-1.12zm-4.155-.855l-1.94 1.12 1.94 1.12 1.94-1.12z" class="B"/><path d="M182.685 203.5l1.94-1.12v-2.24l-1.94 1.12zm-1.94-1.12l1.94 1.12v-2.24l-1.94-1.12zm6.095-4.746l-1.94 1.12 1.94 1.12 1.94-1.12zm0 4.481l1.94-1.12v-2.24l-1.94 1.12zm-1.94-1.12l1.94 1.12v-2.24l-1.94-1.12z" class="B"/><path d="m182.685 201.26-1.94 1.12 4.155-1.385 1.94-1.12z" class="B"/><path d="m184.625 202.38-1.94-1.12 4.156-1.385 1.94 1.12z" class="B"/><path d="M182.685 201.26v-2.24l4.156-1.386 1.94 3.36z" class="B"/><path d="M184.625 202.38v-2.24l4.156-1.386-1.94 1.12z" class="B"/><path d="m180.745 202.38 1.94 1.12 4.156-1.385-1.94-1.12z" class="B"/><path d="M182.685 203.5l1.94-1.12 4.156-1.385-1.94 1.12zm0-4.48l-1.94 1.12 4.155-1.386 1.94-1.12z" class="B"/><path d="m184.625 200.14-1.94-1.12 4.156-1.386 1.94 1.12z" class="B"/><path d="M180.745 202.38v-2.24l4.155-1.386 1.94 3.361z" class="B"/><path d="M182.685 203.5v-2.24l4.156-1.385-1.94 1.12zm0-2.24l1.94-1.12 4.156-1.386-1.94 1.12z" class="B"/><path d="m180.745 200.14 1.94 1.12 4.156-1.385-1.94-1.12z" class="B"/><path d="m182.685 201.26-1.94 1.12 1.94 1.12 1.94-1.12z" class="B"/><path d="M182.685 201.26l-1.94 1.12v-2.24l1.94-1.12zm0 0l1.94 1.12v-2.24l-1.94-1.12zm-8.355 3.982l-1.94 1.12 1.94 1.12 1.94-1.12z" class="B"/><path d="M174.33 205.242l-1.94 1.12v-2.24l1.94-1.12zm0 0l1.94 1.12v-2.24l-1.94-1.12zm8.355-6.222l-1.94 1.12 1.94 1.12 1.94-1.12z" class="B"/><path d="M182.685 203.5l1.94-1.12v-2.24l-1.94 1.12zm-1.94-1.12l1.94 1.12v-2.24l-1.94-1.12zm-6.415.621l-1.94 1.12 1.94 1.12 1.94-1.12zm0 4.481l1.94-1.12v-2.24l-1.94 1.12zm-1.94-1.12l1.94 1.12v-2.24l-1.94-1.12z" class="B"/><path d="m182.685 201.26-1.94 1.12-8.355 3.982 1.94-1.12z" class="B"/><path d="m184.625 202.38-1.94-1.12-8.355 3.982 1.94 1.12z" class="B"/><path d="M182.685 201.26v-2.24L174.33 203l1.94 3.36z" class="B"/><path d="M184.625 202.38v-2.24l-8.354 3.981-1.94 1.12z" class="B"/><path d="m180.745 202.38 1.94 1.12-8.355 3.982-1.94-1.12z" class="B"/><path d="M182.685 203.5l1.94-1.12-8.354 3.982-1.94 1.12zm0-4.48l-1.94 1.12-8.355 3.981 1.94-1.12z" class="B"/><path d="m184.625 200.14-1.94-1.12L174.33 203l1.94 1.12z" class="B"/><path d="M180.745 202.38v-2.24l-8.355 3.981 1.94 3.36z" class="B"/><path d="M182.685 203.5v-2.24l-8.355 3.982-1.94 1.12zm0-2.24l1.94-1.12-8.354 3.981-1.94 1.12z" class="B"/><path d="M180.745 200.14l1.94 1.12-8.355 3.982-1.94-1.12zm99.401 25.125l-1.94 1.12 1.94 1.12 1.94-1.12z" class="B"/><path d="M280.146 225.265l-1.94 1.12v-2.24l1.94-1.12zm0 0l1.94 1.12v-2.24l-1.94-1.12zm-.321.425l-1.94 1.121 1.94 1.12 1.94-1.12z" class="B"/><use href="#C" class="B"/><path d="M280.146 223.025l-1.94 1.12 1.94 1.12 1.94-1.12zm0 4.481l1.94-1.12v-2.24l-1.94 1.12zm-1.94-1.12l1.94 1.12v-2.24l-1.94-1.12z" class="B"/><path d="M279.825 223.45l-1.94 1.12 1.94 1.12 1.94-1.12zm0 4.481l1.94-1.12v-2.24l-1.94 1.12zm-1.94-1.12l1.94 1.12v-2.24l-1.94-1.12z" class="B"/><path d="M280.146 225.265l-1.94 1.12-.321.426 1.94-1.12zm1.941 1.121l-1.94-1.12-.322.425 1.94 1.12z" class="B"/><path d="M280.146 225.265v-2.24l-.321.426 1.94 3.36z" class="B"/><path d="M282.087 226.386v-2.24l-.322.425-1.94 1.12zm-3.881 0l1.94 1.12-.321.425-1.94-1.12z" class="B"/><path d="M280.146 227.506l1.94-1.12-.321.425-1.94 1.12zm0-4.481l-1.94 1.12-.321.426 1.94-1.12zm1.941 1.12l-1.94-1.12-.322.426 1.94 1.12z" class="B"/><path d="M278.206 226.386v-2.24l-.321.425 1.94 3.36z" class="B"/><path d="M280.146 227.506v-2.24l-.321.425-1.94 1.12z" class="B"/><path d="m280.146 225.265 1.94-1.12-.321.426-1.94 1.12z" class="B"/><path d="m278.206 224.145 1.94 1.12-.321.426-1.94-1.12z" class="B"/><path d="m280.146 225.265-1.94 1.12 1.94 1.12 1.94-1.12z" class="B"/><path d="M280.146 225.265l-1.94 1.12v-2.24l1.94-1.12zm0 0l1.94 1.12v-2.24l-1.94-1.12zm8.384-13.035l-1.94 1.12 1.94 1.12 1.941-1.12z" class="B"/><path d="M288.53 212.23l-1.94 1.12v-2.24l1.94-1.12zm0 0l1.941 1.12v-2.24l-1.94-1.12zm-8.384 10.795l-1.94 1.12 1.94 1.12 1.94-1.12zm0 4.481l1.94-1.12v-2.24l-1.94 1.12zm-1.94-1.12l1.94 1.12v-2.24l-1.94-1.12z" class="B"/><path d="m288.53 209.99-1.94 1.12 1.94 1.12 1.941-1.12z" class="B"/><use href="#D" class="B"/><path d="m280.146 225.265-1.94 1.12 8.385-13.034 1.94-1.12z" class="B"/><path d="m282.087 226.386-1.94-1.12 8.384-13.036 1.94 1.12z" class="B"/><path d="M280.146 225.265v-2.24l8.385-13.035 1.94 3.36z" class="B"/><path d="M282.087 226.386v-2.24l8.384-13.036-1.94 1.12z" class="B"/><path d="m278.206 226.386 1.94 1.12 8.385-13.035-1.94-1.12z" class="B"/><path d="M280.146 227.506l1.94-1.12 8.385-13.035-1.94 1.12zm0-4.481l-1.94 1.12 8.385-13.035 1.94-1.12zm1.941 1.12l-1.94-1.12 8.384-13.035 1.94 1.12z" class="B"/><path d="M278.206 226.386v-2.24l8.385-13.036 1.94 3.36z" class="B"/><path d="M280.146 227.506v-2.24l8.385-13.036-1.94 1.12z" class="B"/><path d="m280.146 225.265 1.94-1.12 8.385-13.035-1.94 1.12z" class="B"/><path d="m278.206 224.145 1.94 1.12 8.385-13.035-1.94-1.12z" class="B"/><path d="m280.146 225.265-1.94 1.12 1.94 1.12 1.94-1.12z" class="B"/><path d="M280.146 225.265l-1.94 1.12v-2.24l1.94-1.12zm0 0l1.94 1.12v-2.24l-1.94-1.12zm8.373-13.016l-1.94 1.12 1.94 1.12 1.94-1.12z" class="B"/><path d="M288.519 212.249l-1.94 1.12v-2.24l1.94-1.12zm0 0l1.94 1.12v-2.24l-1.94-1.12zm-8.373 10.776l-1.94 1.12 1.94 1.12 1.94-1.12zm0 4.481l1.94-1.12v-2.24l-1.94 1.12zm-1.94-1.12l1.94 1.12v-2.24l-1.94-1.12z" class="B"/><use href="#E" class="B"/><path d="M280.146 225.265l-1.94 1.12 8.373-13.016 1.94-1.12zm1.941 1.121l-1.94-1.12 8.372-13.017 1.94 1.12z" class="B"/><path d="M280.146 225.265v-2.24l8.373-13.017 1.94 3.361z" class="B"/><path d="M282.087 226.386v-2.24l8.372-13.017-1.94 1.12z" class="B"/><path d="m278.206 226.386 1.94 1.12 8.373-13.017-1.94-1.12z" class="B"/><path d="M280.146 227.506l1.94-1.12 8.373-13.017-1.94 1.12zm0-4.481l-1.94 1.12 8.373-13.016 1.94-1.12z" class="B"/><path d="m282.087 224.145-1.94-1.12 8.372-13.017 1.94 1.12z" class="B"/><path d="M278.206 226.386v-2.24l8.373-13.017 1.94 3.36z" class="B"/><path d="M280.146 227.506v-2.24l8.373-13.017-1.94 1.12z" class="B"/><path d="m280.146 225.265 1.94-1.12 8.373-13.016-1.94 1.12z" class="B"/><path d="M278.206 224.145l1.94 1.12 8.373-13.016-1.94-1.12zm1.619 1.545l-1.94 1.121 1.94 1.12 1.94-1.12z" class="B"/><use href="#C" class="B"/><path d="m280.146 225.265-1.94 1.12 1.94 1.12 1.94-1.12z" class="B"/><path d="M280.146 225.265l-1.94 1.12v-2.24l1.94-1.12zm0 0l1.94 1.12v-2.24l-1.94-1.12z" class="B"/><path d="M279.825 223.45l-1.94 1.12 1.94 1.12 1.94-1.12zm0 4.481l1.94-1.12v-2.24l-1.94 1.12zm-1.94-1.12l1.94 1.12v-2.24l-1.94-1.12z" class="B"/><path d="M280.146 223.025l-1.94 1.12 1.94 1.12 1.94-1.12zm0 4.481l1.94-1.12v-2.24l-1.94 1.12zm-1.94-1.12l1.94 1.12v-2.24l-1.94-1.12z" class="B"/><path d="m279.825 225.69-1.94 1.121.321-.425 1.94-1.12z" class="B"/><path d="m281.765 226.811-1.94-1.12.321-.426 1.94 1.12z" class="B"/><path d="M279.825 225.69v-2.24l.321-.425 1.94 3.36z" class="B"/><path d="M281.765 226.811v-2.24l.322-.426-1.94 1.12zm-3.88 0l1.94 1.12.321-.425-1.94-1.12z" class="B"/><path d="M279.825 227.931l1.94-1.12.322-.425-1.94 1.12zm0-4.481l-1.94 1.12.321-.425 1.94-1.12z" class="B"/><path d="M281.765 224.57l-1.94-1.12.321-.425 1.94 1.12zm-3.88 2.241v-2.24l.321-.426 1.94 3.36z" class="B"/><path d="M279.825 227.931v-2.24l.321-.426-1.94 1.12z" class="B"/><path d="M279.825 225.69l1.94-1.12.322-.425-1.94 1.12zm-1.94-1.12l1.94 1.12.321-.425-1.94-1.12z" class="B"/><path d="m279.825 225.69-1.94 1.121 1.94 1.12 1.94-1.12z" class="B"/><path d="M279.825 225.69l-1.94 1.121v-2.24l1.94-1.12zm0 0l1.94 1.121v-2.24l-1.94-1.12zm-.443.492l-1.94 1.12 1.94 1.12 1.94-1.12z" class="B"/><path d="M279.382 226.182l-1.94 1.12v-2.24l1.94-1.12zm0 0l1.94 1.12v-2.24l-1.94-1.12z" class="B"/><path d="M279.825 223.45l-1.94 1.12 1.94 1.12 1.94-1.12zm0 4.481l1.94-1.12v-2.24l-1.94 1.12zm-1.94-1.12l1.94 1.12v-2.24l-1.94-1.12z" class="B"/><path d="m279.382 223.942-1.94 1.12 1.94 1.12 1.94-1.12z" class="B"/><path d="M279.382 228.422l1.94-1.12v-2.24l-1.94 1.12zm-1.94-1.12l1.94 1.12v-2.24l-1.94-1.12z" class="B"/><path d="M279.825 225.69l-1.94 1.121-.443.491 1.94-1.12zm1.94 1.121l-1.94-1.12-.443.491 1.94 1.12z" class="B"/><path d="M279.825 225.69v-2.24l-.443.492 1.94 3.36z" class="B"/><path d="M281.765 226.811v-2.24l-.442.491-1.94 1.12zm-3.88 0l1.94 1.12-.443.491-1.94-1.12zm1.94 1.12l1.94-1.12-.442.491-1.94 1.12zm0-4.481l-1.94 1.12-.443.492 1.94-1.12z" class="B"/><path d="M281.765 224.57l-1.94-1.12-.443.492 1.94 1.12zm-3.88 2.241v-2.24l-.443.491 1.94 3.36z" class="B"/><path d="M279.825 227.931v-2.24l-.443.491-1.94 1.12z" class="B"/><path d="M279.825 225.69l1.94-1.12-.442.492-1.94 1.12zm-1.94-1.12l1.94 1.12-.443.492-1.94-1.12zm-63.235-55.125l-1.941 1.12 1.94 1.12 1.94-1.12z" class="B"/><path d="M214.65 169.445l-1.941 1.12v-2.24l1.94-1.12zm0 0l1.94 1.12v-2.24l-1.94-1.12zm-.537 7.198l-1.94 1.12 1.94 1.12 1.94-1.12z" class="B"/><path d="M214.113 176.643l-1.94 1.12v-2.24l1.94-1.12zm0 0l1.94 1.12v-2.24l-1.94-1.12zm.537-9.438l-1.941 1.12 1.94 1.12 1.94-1.12zm0 4.48l1.94-1.12v-2.24l-1.94 1.12z" class="B"/><path d="M212.709 170.565l1.94 1.12v-2.24l-1.94-1.12zm1.404 3.838l-1.94 1.12 1.94 1.12 1.94-1.12zm0 4.481l1.94-1.12v-2.24l-1.94 1.12z" class="B"/><path d="m212.173 177.763 1.94 1.12v-2.24l-1.94-1.12z" class="B"/><path d="m214.65 169.445-1.941 1.12-.536 7.198 1.94-1.12z" class="B"/><path d="m216.59 170.565-1.94-1.12-.537 7.198 1.94 1.12z" class="B"/><path d="M214.65 169.445v-2.24l-.537 7.198 1.94 3.36z" class="B"/><path d="M216.59 170.565v-2.24l-.537 7.198-1.94 1.12z" class="B"/><path d="m212.709 170.565 1.94 1.12-.536 7.199-1.94-1.12z" class="B"/><path d="M214.65 171.685l1.94-1.12-.537 7.198-1.94 1.12zm0-4.48l-1.941 1.12-.536 7.198 1.94-1.12z" class="B"/><path d="M216.59 168.325l-1.94-1.12-.537 7.198 1.94 1.12zm-3.881 2.24v-2.24l-.536 7.198 1.94 3.36z" class="B"/><path d="M214.65 171.685v-2.24l-.537 7.198-1.94 1.12z" class="B"/><path d="M214.65 169.445l1.94-1.12-.537 7.198-1.94 1.12zm-1.941-1.12l1.94 1.12-.536 7.198-1.94-1.12z" class="B"/><path d="m214.65 169.445-1.941 1.12 1.94 1.12 1.94-1.12z" class="B"/><path d="M214.65 169.445l-1.941 1.12v-2.24l1.94-1.12zm0 0l1.94 1.12v-2.24l-1.94-1.12z" class="B"/><path d="m214.675 169.138-1.94 1.12 1.94 1.12 1.94-1.12z" class="B"/><path d="M214.675 169.138l-1.94 1.12v-2.24l1.94-1.12zm0 0l1.94 1.12v-2.24l-1.94-1.12z" class="B"/><path d="M214.65 167.205l-1.941 1.12 1.94 1.12 1.94-1.12zm0 4.48l1.94-1.12v-2.24l-1.94 1.12z" class="B"/><path d="M212.709 170.565l1.94 1.12v-2.24l-1.94-1.12zm1.966-3.668l-1.94 1.12 1.94 1.12 1.94-1.12zm0 4.481l1.94-1.12v-2.24l-1.94 1.12z" class="B"/><path d="m212.734 170.258 1.94 1.12v-2.24l-1.94-1.12z" class="B"/><path d="M214.65 169.445l-1.941 1.12.025-.307 1.94-1.12zm1.94 1.12l-1.94-1.12.025-.307 1.94 1.12z" class="B"/><path d="M214.65 169.445v-2.24l.025-.308 1.94 3.36z" class="B"/><path d="M216.59 170.565v-2.24l.025-.308-1.94 1.12zm-3.881 0l1.94 1.12.026-.307-1.94-1.12z" class="B"/><path d="M214.65 171.685l1.94-1.12.025-.307-1.94 1.12zm0-4.48l-1.941 1.12.025-.308 1.94-1.12z" class="B"/><path d="M216.59 168.325l-1.94-1.12.025-.308 1.94 1.12zm-3.881 2.24v-2.24l.025-.308 1.94 3.361z" class="B"/><path d="M214.65 171.685v-2.24l.025-.307-1.94 1.12z" class="B"/><path d="m214.65 169.445 1.94-1.12.025-.308-1.94 1.12z" class="B"/><path d="M212.709 168.325l1.94 1.12.026-.307-1.94-1.12zm75.821 43.905l-1.94 1.12 1.94 1.12 1.941-1.12z" class="B"/><path d="M288.53 212.23l-1.94 1.12v-2.24l1.94-1.12zm0 0l1.941 1.12v-2.24l-1.94-1.12zm-8.384 13.035l-1.94 1.12 1.94 1.12 1.94-1.12z" class="B"/><path d="M280.146 225.265l-1.94 1.12v-2.24l1.94-1.12zm0 0l1.94 1.12v-2.24l-1.94-1.12zm8.384-15.275l-1.94 1.12 1.94 1.12 1.941-1.12z" class="B"/><path d="M288.53 214.47l1.941-1.12v-2.24l-1.94 1.12zm-1.94-1.12l1.94 1.12v-2.24l-1.94-1.12zm-6.444 9.675l-1.94 1.12 1.94 1.12 1.94-1.12zm0 4.481l1.94-1.12v-2.24l-1.94 1.12zm-1.94-1.12l1.94 1.12v-2.24l-1.94-1.12z" class="B"/><path d="m288.53 212.23-1.94 1.12-8.384 13.036 1.94-1.12z" class="B"/><path d="m290.471 213.35-1.94-1.12-8.385 13.035 1.94 1.12z" class="B"/><path d="M288.53 212.23v-2.24l-8.384 13.035 1.94 3.36z" class="B"/><path d="M290.471 213.35v-2.24l-8.384 13.035-1.94 1.12z" class="B"/><path d="M286.59 213.35l1.94 1.12-8.384 13.036-1.94-1.12zm1.94 1.12l1.941-1.12-8.384 13.036-1.94 1.12zm0-4.48l-1.94 1.12-8.384 13.035 1.94-1.12z" class="B"/><path d="m290.471 211.11-1.94-1.12-8.385 13.035 1.94 1.12z" class="B"/><path d="M286.59 213.35v-2.24l-8.384 13.035 1.94 3.36z" class="B"/><path d="M288.53 214.47v-2.24l-8.384 13.035-1.94 1.12z" class="B"/><path d="m288.53 212.23 1.941-1.12-8.384 13.035-1.94 1.12z" class="B"/><path d="m286.59 211.11 1.94 1.12-8.384 13.035-1.94-1.12z" class="B"/><path d="m288.53 212.23-1.94 1.12 1.94 1.12 1.941-1.12z" class="B"/><path d="M288.53 212.23l-1.94 1.12v-2.24l1.94-1.12zm0 0l1.941 1.12v-2.24l-1.94-1.12zm-.011.019l-1.94 1.12 1.94 1.12 1.94-1.12z" class="B"/><path d="M288.519 212.249l-1.94 1.12v-2.24l1.94-1.12zm0 0l1.94 1.12v-2.24l-1.94-1.12z" class="B"/><path d="m288.53 209.99-1.94 1.12 1.94 1.12 1.941-1.12z" class="B"/><use href="#D" class="B"/><use href="#E" class="B"/><path d="M288.53 212.23l-1.94 1.12-.011.019 1.94-1.12zm1.941 1.12l-1.94-1.12-.012.019 1.94 1.12z" class="B"/><path d="M288.53 212.23v-2.24l-.011.018 1.94 3.361z" class="B"/><path d="M290.471 213.35v-2.24l-.012.019-1.94 1.12zm-3.881 0l1.94 1.12-.011.02-1.94-1.121z" class="B"/><path d="M288.53 214.47l1.941-1.12-.012.019-1.94 1.12zm0-4.48l-1.94 1.12-.011.019 1.94-1.12z" class="B"/><path d="M290.471 211.11l-1.94-1.12-.012.018 1.94 1.12zm-3.881 2.24v-2.24l-.011.019 1.94 3.36z" class="B"/><path d="M288.53 214.47v-2.24l-.011.019-1.94 1.12z" class="B"/><path d="m288.53 212.23 1.941-1.12-.012.019-1.94 1.12z" class="B"/><path d="m286.59 211.11 1.94 1.12-.011.019-1.94-1.12z" class="B"/><path d="m288.53 212.23-1.94 1.12 1.94 1.12 1.941-1.12z" class="B"/><path d="M288.53 212.23l-1.94 1.12v-2.24l1.94-1.12zm0 0l1.941 1.12v-2.24l-1.94-1.12zm8.35-14.201l-1.94 1.12 1.94 1.12 1.94-1.12z" class="B"/><path d="M296.88 198.029l-1.94 1.12v-2.24l1.94-1.12zm0 0l1.94 1.12v-2.24l-1.94-1.12zm-8.35 11.961l-1.94 1.12 1.94 1.12 1.941-1.12z" class="B"/><path d="M288.53 214.47l1.941-1.12v-2.24l-1.94 1.12zm-1.94-1.12l1.94 1.12v-2.24l-1.94-1.12zm10.29-17.561l-1.94 1.12 1.94 1.12 1.94-1.12z" class="B"/><use href="#F" class="B"/><path d="M288.53 212.23l-1.94 1.12 8.35-14.2 1.94-1.121zm1.941 1.12l-1.94-1.12 8.349-14.201 1.94 1.12z" class="B"/><path d="M288.53 212.23v-2.24l8.35-14.201 1.94 3.36z" class="B"/><path d="M290.471 213.35v-2.24l8.35-14.201-1.941 1.12z" class="B"/><path d="m286.59 213.35 1.94 1.12 8.35-14.2-1.94-1.12z" class="B"/><path d="M288.53 214.47l1.941-1.12 8.35-14.2-1.941 1.12zm0-4.48l-1.94 1.12 8.35-14.201 1.94-1.12zm1.941 1.12l-1.94-1.12 8.349-14.201 1.94 1.12z" class="B"/><path d="M286.59 213.35v-2.24l8.35-14.201 1.94 3.36z" class="B"/><path d="M288.53 214.47v-2.24l8.35-14.201-1.94 1.12z" class="B"/><path d="m288.53 212.23 1.941-1.12 8.35-14.201-1.941 1.12z" class="B"/><path d="M286.59 211.11l1.94 1.12 8.35-14.201-1.94-1.12zm1.929 1.139l-1.94 1.12 1.94 1.12 1.94-1.12z" class="B"/><path d="M288.519 212.249l-1.94 1.12v-2.24l1.94-1.12zm0 0l1.94 1.12v-2.24l-1.94-1.12zm-8.373 13.016l-1.94 1.12 1.94 1.12 1.94-1.12z" class="B"/><path d="M280.146 225.265l-1.94 1.12v-2.24l1.94-1.12zm0 0l1.94 1.12v-2.24l-1.94-1.12zm8.373-15.257l-1.94 1.12 1.94 1.12 1.94-1.12zm0 4.482l1.94-1.121v-2.24l-1.94 1.12zm-1.94-1.121l1.94 1.12v-2.24l-1.94-1.12z" class="B"/><path d="M280.146 223.025l-1.94 1.12 1.94 1.12 1.94-1.12zm0 4.481l1.94-1.12v-2.24l-1.94 1.12zm-1.94-1.12l1.94 1.12v-2.24l-1.94-1.12z" class="B"/><path d="m288.519 212.249-1.94 1.12-8.373 13.017 1.94-1.12z" class="B"/><path d="m290.46 213.369-1.941-1.12-8.373 13.016 1.94 1.12z" class="B"/><path d="M288.519 212.249v-2.24l-8.373 13.016 1.94 3.36z" class="B"/><path d="M290.46 213.369v-2.24l-8.373 13.016-1.94 1.12z" class="B"/><path d="M286.579 213.369l1.94 1.12-8.373 13.017-1.94-1.12zm1.94 1.121l1.94-1.121-8.372 13.017-1.94 1.12zm0-4.482l-1.94 1.12-8.373 13.017 1.94-1.12z" class="B"/><path d="m290.46 211.129-1.941-1.12-8.373 13.016 1.94 1.12z" class="B"/><path d="M286.579 213.369v-2.24l-8.373 13.016 1.94 3.36z" class="B"/><path d="M288.519 214.49v-2.241l-8.373 13.016-1.94 1.12z" class="B"/><path d="M288.519 212.249l1.94-1.12-8.372 13.016-1.94 1.12zm-1.94-1.12l1.94 1.12-8.373 13.016-1.94-1.12z" class="B"/><path d="m288.519 212.249-1.94 1.12 1.94 1.12 1.94-1.12z" class="B"/><path d="M288.519 212.249l-1.94 1.12v-2.24l1.94-1.12zm0 0l1.94 1.12v-2.24l-1.94-1.12z" class="B"/><path d="m288.53 212.23-1.94 1.12 1.94 1.12 1.941-1.12z" class="B"/><path d="M288.53 212.23l-1.94 1.12v-2.24l1.94-1.12zm0 0l1.941 1.12v-2.24l-1.94-1.12z" class="B"/><use href="#E" class="B"/><path d="m288.53 209.99-1.94 1.12 1.94 1.12 1.941-1.12z" class="B"/><use href="#D" class="B"/><path d="m288.519 212.249-1.94 1.12.012-.018 1.94-1.12z" class="B"/><path d="m290.46 213.369-1.941-1.12.012-.019 1.94 1.12z" class="B"/><path d="M288.519 212.249v-2.24l.012-.019 1.94 3.36z" class="B"/><path d="M290.46 213.369v-2.24l.011-.019-1.94 1.12zm-3.881 0l1.94 1.12.012-.018-1.94-1.12z" class="B"/><path d="M288.519 214.49l1.94-1.121.012-.018-1.94 1.12zm0-4.482l-1.94 1.12.012-.018 1.94-1.12z" class="B"/><path d="M290.46 211.129l-1.941-1.12.012-.019 1.94 1.12zm-3.881 2.24v-2.24l.012-.019 1.94 3.36z" class="B"/><path d="M288.519 214.49v-2.241l.012-.019-1.94 1.12z" class="B"/><path d="m288.519 212.249 1.94-1.12.012-.019-1.94 1.12z" class="B"/><path d="M286.579 211.129l1.94 1.12.012-.019-1.94-1.12zm20.187-17.699l-1.94 1.12 1.94 1.12 1.94-1.12z" class="B"/><path d="M306.766 193.43l-1.94 1.12v-2.24l1.94-1.12zm0 0l1.94 1.12v-2.24l-1.94-1.12zm-4.892 2.418l-1.94 1.12 1.94 1.12 1.94-1.12z" class="B"/><path d="M301.874 195.848l-1.94 1.12v-2.24l1.94-1.12zm0 0l1.94 1.12v-2.24l-1.94-1.12zm4.892-4.658l-1.94 1.12 1.94 1.12 1.94-1.12z" class="B"/><path d="M306.766 195.67l1.94-1.12v-2.24l-1.94 1.12zm-1.941-1.12l1.94 1.12v-2.24l-1.94-1.12zm-2.951-.943l-1.94 1.12 1.94 1.12 1.94-1.12zm0 4.481l1.94-1.12v-2.24l-1.94 1.12zm-1.94-1.12l1.94 1.12v-2.24l-1.94-1.12z" class="B"/><path d="m306.766 193.43-1.94 1.12-4.892 2.418 1.94-1.12z" class="B"/><path d="m308.706 194.55-1.94-1.12-4.892 2.418 1.94 1.12z" class="B"/><path d="M306.766 193.43v-2.24l-4.892 2.417 1.94 3.36z" class="B"/><path d="M308.706 194.55v-2.24l-4.892 2.418-1.94 1.12z" class="B"/><path d="m304.825 194.55 1.94 1.12-4.891 2.418-1.94-1.12z" class="B"/><path d="M306.766 195.67l1.94-1.12-4.892 2.418-1.94 1.12zm0-4.48l-1.94 1.12-4.892 2.418 1.94-1.12z" class="B"/><path d="m308.706 192.31-1.94-1.12-4.892 2.417 1.94 1.12z" class="B"/><path d="M304.825 194.55v-2.24l-4.891 2.418 1.94 3.36z" class="B"/><path d="M306.766 195.67v-2.24l-4.892 2.418-1.94 1.12z" class="B"/><path d="m306.766 193.43 1.94-1.12-4.892 2.418-1.94 1.12z" class="B"/><path d="M304.825 192.31l1.94 1.12-4.891 2.418-1.94-1.12zm751.761-477.275l-1.94 1.12 1.94 1.12 1.94-1.12z" class="B"/><path d="M1056.586-284.965l-1.94 1.12v-2.24l1.94-1.12zm0 0l1.94 1.12v-2.24l-1.94-1.12zM306.766 193.43l-1.94 1.12 1.94 1.12 1.94-1.12z" class="B"/><path d="M306.766 193.43l-1.94 1.12v-2.24l1.94-1.12zm0 0l1.94 1.12v-2.24l-1.94-1.12z" class="B"/><path d="m306.766 191.19-1.94 1.12 1.94 1.12 1.94-1.12z" class="B"/><path d="M306.766 195.67l1.94-1.12v-2.24l-1.94 1.12zm-1.941-1.12l1.94 1.12v-2.24l-1.94-1.12zm751.761-481.755l-1.94 1.12 1.94 1.12 1.94-1.12zm0 4.481l1.94-1.12v-2.24l-1.94 1.12z" class="B"/><path d="m1054.646-283.845 1.94 1.12v-2.24l-1.94-1.12z" class="B"/><path d="m308.706 194.55-1.94-1.12 749.82-478.395 1.94 1.12z" class="B"/><path d="m306.766 193.43-1.94 1.12 749.82-478.395 1.94-1.12z" class="B"/><path d="M306.766 193.43v-2.24l749.82-478.395 1.94 3.36z" class="B"/><path d="M308.706 194.55v-2.24l749.82-478.395-1.94 1.12z" class="B"/><path d="m304.825 194.55 1.94 1.12 749.821-478.394-1.94-1.12z" class="B"/><path d="M306.766 195.67l1.94-1.12 749.82-478.395-1.94 1.12zm0-4.48l-1.94 1.12 749.82-478.395 1.94-1.12z" class="B"/><path d="m308.706 192.31-1.94-1.12 749.82-478.395 1.94 1.12z" class="B"/><path d="M304.825 194.55v-2.24l749.821-478.395 1.94 3.36z" class="B"/><path d="M306.766 195.67v-2.24l749.82-478.395-1.94 1.12z" class="B"/><path d="M306.766 193.43l1.94-1.12 749.82-478.395-1.94 1.12zm-1.941-1.12l1.94 1.12 749.821-478.395-1.94-1.12zm-141.848 19.212l-1.94 1.12 1.94 1.12 1.94-1.12z" class="B"/><path d="M162.977 211.522l-1.94 1.12v-2.24l1.94-1.12zm0 0l1.94 1.12v-2.24l-1.94-1.12zm11.353-6.28l-1.94 1.12 1.94 1.12 1.94-1.12z" class="B"/><path d="M174.33 205.242l-1.94 1.12v-2.24l1.94-1.12zm0 0l1.94 1.12v-2.24l-1.94-1.12zm-11.353 4.04l-1.94 1.12 1.94 1.12 1.94-1.12zm0 4.481l1.94-1.12v-2.24l-1.94 1.12zm-1.94-1.12l1.94 1.12v-2.24l-1.94-1.12z" class="B"/><path d="M174.33 203.001l-1.94 1.12 1.94 1.12 1.94-1.12zm0 4.481l1.94-1.12v-2.24l-1.94 1.12zm-1.94-1.12l1.94 1.12v-2.24l-1.94-1.12z" class="B"/><path d="m162.977 211.522-1.94 1.12 11.353-6.28 1.94-1.12z" class="B"/><path d="m164.917 212.643-1.94-1.12 11.353-6.281 1.94 1.12z" class="B"/><path d="M162.977 211.522v-2.24l11.353-6.28 1.94 3.36z" class="B"/><path d="M164.917 212.643v-2.24l11.354-6.282-1.94 1.12z" class="B"/><path d="m161.037 212.643 1.94 1.12 11.353-6.281-1.94-1.12z" class="B"/><path d="M162.977 213.763l1.94-1.12 11.354-6.281-1.94 1.12zm0-4.481l-1.94 1.12 11.353-6.28 1.94-1.12z" class="B"/><path d="m164.917 210.402-1.94-1.12 11.353-6.28 1.94 1.12z" class="B"/><path d="M161.037 212.643v-2.24l11.353-6.282 1.94 3.36z" class="B"/><path d="M162.977 213.763v-2.24l11.353-6.281-1.94 1.12z" class="B"/><path d="m162.977 211.522 1.94-1.12 11.354-6.28-1.94 1.12z" class="B"/><path d="m161.037 210.402 1.94 1.12 11.353-6.28-1.94-1.12z" class="B"/><path d="m162.977 211.522-1.94 1.12 1.94 1.12 1.94-1.12z" class="B"/><path d="M162.977 211.522l-1.94 1.12v-2.24l1.94-1.12zm0 0l1.94 1.12v-2.24l-1.94-1.12zm-675.579 397.24l-1.94 1.12 1.94 1.12 1.94-1.12z" class="B"/><path d="M-512.602 608.762l-1.94 1.12v-2.24l1.94-1.12zm0 0l1.94 1.12v-2.24l-1.94-1.12zm675.579-399.48l-1.94 1.12 1.94 1.12 1.94-1.12zm0 4.481l1.94-1.12v-2.24l-1.94 1.12zm-1.94-1.12l1.94 1.12v-2.24l-1.94-1.12z" class="B"/><path d="M-512.602 606.522l-1.94 1.12 1.94 1.12 1.94-1.12zm0 4.481l1.94-1.12v-2.24l-1.94 1.12zm-1.94-1.12l1.94 1.12v-2.24l-1.94-1.12z" class="B"/><path d="M162.977 211.522l-1.94 1.12-675.579 397.24 1.94-1.12zm1.94 1.121l-1.94-1.12-675.579 397.24 1.94 1.12z" class="B"/><path d="M162.977 211.522v-2.24l-675.579 397.24 1.94 3.36z" class="B"/><path d="M164.917 212.643v-2.24l-675.578 397.24-1.94 1.12z" class="B"/><path d="M161.037 212.643l1.94 1.12-675.579 397.24-1.94-1.12zm1.94 1.12l1.94-1.12-675.578 397.24-1.94 1.12zm0-4.481l-1.94 1.12-675.579 397.24 1.94-1.12z" class="B"/><path d="m164.917 210.402-1.94-1.12-675.579 397.24 1.94 1.12z" class="B"/><path d="M161.037 212.643v-2.24l-675.579 397.24 1.94 3.36z" class="B"/><path d="M162.977 213.763v-2.24l-675.579 397.24-1.94 1.12z" class="B"/><path d="M161.037 210.402l1.94 1.12-675.579 397.24-1.94-1.12zm1.94 1.12l1.94-1.12-675.578 397.24-1.94 1.12zm51.698-42.384l-1.94 1.12 1.94 1.12 1.94-1.12z" class="B"/><path d="M214.675 169.138l-1.94 1.12v-2.24l1.94-1.12zm0 0l1.94 1.12v-2.24l-1.94-1.12zm1.771-8.573l-1.94 1.12 1.94 1.12 1.94-1.12z" class="B"/><path d="M216.446 160.565l-1.94 1.12v-2.24l1.94-1.12zm0 0l1.94 1.12v-2.24l-1.94-1.12zm-1.771 6.332l-1.94 1.12 1.94 1.12 1.94-1.12zm0 4.481l1.94-1.12v-2.24l-1.94 1.12zm-1.941-1.12l1.94 1.12v-2.24l-1.94-1.12z" class="B"/><path d="M216.446 158.324l-1.94 1.12 1.94 1.12 1.94-1.12zm0 4.481l1.94-1.12v-2.24l-1.94 1.12zm-1.94-1.12l1.94 1.12v-2.24l-1.94-1.12z" class="B"/><path d="m214.675 169.138-1.94 1.12 1.77-8.573 1.94-1.12z" class="B"/><path d="m216.615 170.258-1.94-1.12 1.77-8.573 1.941 1.12z" class="B"/><path d="M214.675 169.138v-2.24l1.77-8.574 1.941 3.36z" class="B"/><path d="M216.615 170.258v-2.24l1.771-8.573-1.94 1.12zm-3.881 0l1.94 1.12 1.772-8.573-1.94-1.12z" class="B"/><path d="M214.675 171.378l1.94-1.12 1.771-8.573-1.94 1.12zm0-4.481l-1.94 1.12 1.77-8.572 1.94-1.12z" class="B"/><path d="m216.615 168.017-1.94-1.12 1.77-8.573 1.941 1.12z" class="B"/><path d="M212.734 170.258v-2.24l1.772-8.573 1.94 3.36z" class="B"/><path d="M214.675 171.378v-2.24l1.77-8.573-1.94 1.12z" class="B"/><path d="M214.675 169.138l1.94-1.12 1.771-8.573-1.94 1.12zm-1.941-1.121l1.94 1.12 1.772-8.572-1.94-1.12z" class="B"/><path d="m214.675 169.138-1.94 1.12 1.94 1.12 1.94-1.12z" class="B"/><path d="M214.675 169.138l-1.94 1.12v-2.24l1.94-1.12zm0 0l1.94 1.12v-2.24l-1.94-1.12zm-.025.307l-1.941 1.12 1.94 1.12 1.94-1.12z" class="B"/><path d="M214.65 169.445l-1.941 1.12v-2.24l1.94-1.12zm0 0l1.94 1.12v-2.24l-1.94-1.12z" class="B"/><path d="M214.675 166.897l-1.94 1.12 1.94 1.12 1.94-1.12zm0 4.481l1.94-1.12v-2.24l-1.94 1.12zm-1.941-1.12l1.94 1.12v-2.24l-1.94-1.12z" class="B"/><path d="M214.65 167.205l-1.941 1.12 1.94 1.12 1.94-1.12zm0 4.48l1.94-1.12v-2.24l-1.94 1.12z" class="B"/><path d="m212.709 170.565 1.94 1.12v-2.24l-1.94-1.12z" class="B"/><path d="m214.675 169.138-1.94 1.12-.026.307 1.94-1.12z" class="B"/><path d="m216.615 170.258-1.94-1.12-.026.307 1.94 1.12z" class="B"/><path d="M214.675 169.138v-2.24l-.026.307 1.94 3.36z" class="B"/><path d="M216.615 170.258v-2.24l-.026.307-1.94 1.12zm-3.881 0l1.94 1.12-.025.307-1.94-1.12z" class="B"/><path d="M214.675 171.378l1.94-1.12-.026.307-1.94 1.12zm0-4.481l-1.94 1.12-.026.308 1.94-1.12z" class="B"/><path d="M216.615 168.017l-1.94-1.12-.026.308 1.94 1.12zm-3.881 2.241v-2.24l-.025.307 1.94 3.36z" class="B"/><path d="M214.675 171.378v-2.24l-.026.307-1.94 1.12z" class="B"/><path d="M214.675 169.138l1.94-1.12-.026.307-1.94 1.12zm-1.941-1.121l1.94 1.12-.025.308-1.94-1.12zm63.709 59.999l-1.94 1.12 1.94 1.12 1.94-1.12z" class="B"/><path d="M276.443 228.016l-1.94 1.12v-2.24l1.94-1.12zm0 0l1.94 1.12v-2.24l-1.94-1.12zm-6.053.514l-1.941 1.12 1.94 1.12 1.94-1.12z" class="B"/><path d="M270.39 228.53l-1.941 1.12v-2.24l1.94-1.12zm0 0l1.94 1.12v-2.24l-1.94-1.12zm6.053-2.754l-1.94 1.12 1.94 1.12 1.94-1.12zm0 4.481l1.94-1.12v-2.24l-1.94 1.12zm-1.94-1.12l1.94 1.12v-2.24l-1.94-1.12z" class="B"/><path d="M270.39 226.29l-1.941 1.12 1.94 1.12 1.94-1.12zm0 4.48l1.94-1.12v-2.24l-1.94 1.12z" class="B"/><path d="m268.449 229.65 1.94 1.12v-2.24l-1.94-1.12z" class="B"/><path d="m276.443 228.016-1.94 1.12-6.054.514 1.94-1.12z" class="B"/><path d="m278.383 229.137-1.94-1.12-6.054.513 1.94 1.12z" class="B"/><path d="M276.443 228.016v-2.24l-6.054.514 1.94 3.36z" class="B"/><path d="M278.383 229.137v-2.24l-6.054.513-1.94 1.12zm-3.88 0l1.94 1.12-6.054.513-1.94-1.12z" class="B"/><path d="M276.443 230.257l1.94-1.12-6.054.513-1.94 1.12zm0-4.481l-1.94 1.12-6.054.514 1.94-1.12z" class="B"/><path d="m278.383 226.896-1.94-1.12-6.054.514 1.94 1.12z" class="B"/><path d="M274.503 229.137v-2.24l-6.054.513 1.94 3.36z" class="B"/><path d="M276.443 230.257v-2.24l-6.054.513-1.94 1.12zm0-2.241l1.94-1.12-6.054.514-1.94 1.12z" class="B"/><path d="m274.503 226.896 1.94 1.12-6.054.514-1.94-1.12z" class="B"/><path d="m276.443 228.016-1.94 1.12 1.94 1.12 1.94-1.12z" class="B"/><path d="M276.443 228.016l-1.94 1.12v-2.24l1.94-1.12zm0 0l1.94 1.12v-2.24l-1.94-1.12z" class="B"/><path d="m277.677 227.411-1.94 1.12 1.94 1.12 1.94-1.12z" class="B"/><path d="M277.677 227.411l-1.94 1.12v-2.24l1.94-1.12zm0 0l1.94 1.12v-2.24l-1.94-1.12z" class="B"/><path d="M276.443 225.776l-1.94 1.12 1.94 1.12 1.94-1.12zm0 4.481l1.94-1.12v-2.24l-1.94 1.12zm-1.94-1.12l1.94 1.12v-2.24l-1.94-1.12z" class="B"/><path d="M277.677 225.171l-1.94 1.12 1.94 1.12 1.94-1.12zm0 4.481l1.94-1.12v-2.24l-1.94 1.12z" class="B"/><path d="m275.737 228.532 1.94 1.12v-2.24l-1.94-1.12z" class="B"/><path d="m276.443 228.016-1.94 1.12 1.234-.604 1.94-1.12z" class="B"/><path d="m278.383 229.137-1.94-1.12 1.234-.606 1.94 1.12z" class="B"/><path d="M276.443 228.016v-2.24l1.234-.605 1.94 3.36z" class="B"/><path d="M278.383 229.137v-2.24l1.235-.606-1.94 1.12zm-3.88 0l1.94 1.12 1.234-.605-1.94-1.12z" class="B"/><path d="M276.443 230.257l1.94-1.12 1.235-.605-1.94 1.12zm0-4.481l-1.94 1.12 1.234-.605 1.94-1.12z" class="B"/><path d="M278.383 226.896l-1.94-1.12 1.234-.605 1.94 1.12zm-3.88 2.241v-2.24l1.234-.606 1.94 3.36z" class="B"/><path d="M276.443 230.257v-2.24l1.234-.606-1.94 1.12z" class="B"/><path d="m276.443 228.016 1.94-1.12 1.235-.605-1.94 1.12z" class="B"/><path d="M274.503 226.896l1.94 1.12 1.234-.605-1.94-1.12zm-4.113 1.634l-1.941 1.12 1.94 1.12 1.94-1.12z" class="B"/><path d="M270.39 228.53l-1.941 1.12v-2.24l1.94-1.12zm0 0l1.94 1.12v-2.24l-1.94-1.12zm6.053-.514l-1.94 1.12 1.94 1.12 1.94-1.12z" class="B"/><path d="M276.443 228.016l-1.94 1.12v-2.24l1.94-1.12zm0 0l1.94 1.12v-2.24l-1.94-1.12zm-6.053-1.726l-1.941 1.12 1.94 1.12 1.94-1.12zm0 4.48l1.94-1.12v-2.24l-1.94 1.12z" class="B"/><path d="M268.449 229.65l1.94 1.12v-2.24l-1.94-1.12zm7.994-3.874l-1.94 1.12 1.94 1.12 1.94-1.12zm0 4.481l1.94-1.12v-2.24l-1.94 1.12zm-1.94-1.12l1.94 1.12v-2.24l-1.94-1.12z" class="B"/><path d="m270.39 228.53-1.941 1.12 6.054-.513 1.94-1.12z" class="B"/><path d="m272.33 229.65-1.94-1.12 6.053-.514 1.94 1.12z" class="B"/><path d="M270.39 228.53v-2.24l6.053-.514 1.94 3.36z" class="B"/><path d="M272.33 229.65v-2.24l6.053-.514-1.94 1.12z" class="B"/><path d="m268.449 229.65 1.94 1.12 6.054-.513-1.94-1.12z" class="B"/><path d="M270.39 230.77l1.94-1.12 6.053-.513-1.94 1.12zm0-4.48l-1.941 1.12 6.054-.514 1.94-1.12z" class="B"/><path d="m272.33 227.41-1.94-1.12 6.053-.514 1.94 1.12z" class="B"/><path d="M268.449 229.65v-2.24l6.054-.514 1.94 3.36z" class="B"/><path d="M270.39 230.77v-2.24l6.053-.514-1.94 1.12z" class="B"/><path d="m270.39 228.53 1.94-1.12 6.053-.514-1.94 1.12z" class="B"/><path d="m268.449 227.41 1.94 1.12 6.054-.514-1.94-1.12z" class="B"/><path d="m270.39 228.53-1.941 1.12 1.94 1.12 1.94-1.12z" class="B"/><path d="M270.39 228.53l-1.941 1.12v-2.24l1.94-1.12zm0 0l1.94 1.12v-2.24l-1.94-1.12z" class="B"/><path d="m267.67 228.297-1.94 1.12 1.94 1.12 1.94-1.12z" class="B"/><path d="M267.67 228.297l-1.94 1.12v-2.24l1.94-1.12zm0 0l1.94 1.12v-2.24l-1.94-1.12z" class="B"/><path d="M270.39 226.29l-1.941 1.12 1.94 1.12 1.94-1.12zm0 4.48l1.94-1.12v-2.24l-1.94 1.12z" class="B"/><path d="m268.449 229.65 1.94 1.12v-2.24l-1.94-1.12z" class="B"/><path d="M267.67 226.056l-1.94 1.12 1.94 1.12 1.94-1.12zm0 4.481l1.94-1.12v-2.24l-1.94 1.12zm-1.94-1.12l1.94 1.12v-2.24l-1.94-1.12z" class="B"/><path d="m270.39 228.53-1.941 1.12-2.719-.233 1.94-1.12z" class="B"/><path d="m272.33 229.65-1.94-1.12-2.72-.233 1.94 1.12z" class="B"/><path d="M270.39 228.53v-2.24l-2.72-.234 1.94 3.36z" class="B"/><path d="M272.33 229.65v-2.24l-2.72-.233-1.94 1.12zm-3.881 0l1.94 1.12-2.719-.233-1.94-1.12z" class="B"/><path d="M270.39 230.77l1.94-1.12-2.72-.233-1.94 1.12zm0-4.48l-1.941 1.12-2.719-.233 1.94-1.12z" class="B"/><path d="M272.33 227.41l-1.94-1.12-2.72-.234 1.94 1.12zm-3.881 2.24v-2.24l-2.719-.233 1.94 3.36z" class="B"/><path d="M270.39 230.77v-2.24l-2.72-.233-1.94 1.12z" class="B"/><path d="m270.39 228.53 1.94-1.12-2.72-.233-1.94 1.12z" class="B"/><path d="M268.449 227.41l1.94 1.12-2.719-.233-1.94-1.12zm10.053-.444l-1.94 1.12 1.94 1.12 1.94-1.12z" class="B"/><path d="M278.502 226.966l-1.94 1.12v-2.24l1.94-1.12zm0 0l1.94 1.12v-2.24l-1.94-1.12z" class="B"/><path d="m279.382 226.182-1.94 1.12 1.94 1.12 1.94-1.12z" class="B"/><path d="M279.382 226.182l-1.94 1.12v-2.24l1.94-1.12zm0 0l1.94 1.12v-2.24l-1.94-1.12z" class="B"/><path d="M278.502 224.726l-1.94 1.12 1.94 1.12 1.94-1.12zm0 4.481l1.94-1.12v-2.24l-1.94 1.12zm-1.941-1.12l1.94 1.12v-2.24l-1.94-1.12z" class="B"/><path d="m279.382 223.942-1.94 1.12 1.94 1.12 1.94-1.12z" class="B"/><path d="M279.382 228.422l1.94-1.12v-2.24l-1.94 1.12zm-1.94-1.12l1.94 1.12v-2.24l-1.94-1.12z" class="B"/><path d="m278.502 226.966-1.94 1.12.88-.784 1.94-1.12z" class="B"/><path d="m280.442 228.087-1.94-1.12.88-.785 1.94 1.12z" class="B"/><path d="M278.502 226.966v-2.24l.88-.784 1.94 3.36z" class="B"/><path d="M280.442 228.087v-2.24l.88-.785-1.94 1.12zm-3.881 0l1.94 1.12.881-.785-1.94-1.12z" class="B"/><path d="M278.502 229.207l1.94-1.12.88-.785-1.94 1.12zm0-4.481l-1.94 1.12.88-.784 1.94-1.12z" class="B"/><path d="M280.442 225.846l-1.94-1.12.88-.784 1.94 1.12zm-3.881 2.241v-2.24l.881-.785 1.94 3.36z" class="B"/><path d="M278.502 229.207v-2.24l.88-.785-1.94 1.12z" class="B"/><path d="M278.502 226.966l1.94-1.12.88-.784-1.94 1.12zm-1.941-1.12l1.94 1.12.881-.784-1.94-1.12z" class="B"/><path d="m278.502 226.966-1.94 1.12 1.94 1.12 1.94-1.12z" class="B"/><path d="M278.502 226.966l-1.94 1.12v-2.24l1.94-1.12zm0 0l1.94 1.12v-2.24l-1.94-1.12z" class="B"/><path d="m277.677 227.411-1.94 1.12 1.94 1.12 1.94-1.12z" class="B"/><path d="M277.677 227.411l-1.94 1.12v-2.24l1.94-1.12zm0 0l1.94 1.12v-2.24l-1.94-1.12z" class="B"/><path d="M278.502 224.726l-1.94 1.12 1.94 1.12 1.94-1.12zm0 4.481l1.94-1.12v-2.24l-1.94 1.12zm-1.941-1.12l1.94 1.12v-2.24l-1.94-1.12z" class="B"/><path d="M277.677 225.171l-1.94 1.12 1.94 1.12 1.94-1.12zm0 4.481l1.94-1.12v-2.24l-1.94 1.12z" class="B"/><path d="m275.737 228.532 1.94 1.12v-2.24l-1.94-1.12z" class="B"/><path d="m278.502 226.966-1.94 1.12-.825.446 1.94-1.12z" class="B"/><path d="m280.442 228.087-1.94-1.12-.825.444 1.94 1.12z" class="B"/><path d="M278.502 226.966v-2.24l-.825.445 1.94 3.36z" class="B"/><path d="M280.442 228.087v-2.24l-.824.444-1.94 1.12zm-3.881 0l1.94 1.12-.824.445-1.94-1.12z" class="B"/><path d="M278.502 229.207l1.94-1.12-.824.445-1.94 1.12zm0-4.481l-1.94 1.12-.825.445 1.94-1.12z" class="B"/><path d="M280.442 225.846l-1.94-1.12-.825.445 1.94 1.12zm-3.881 2.241v-2.24l-.824.444 1.94 3.36z" class="B"/><path d="M278.502 229.207v-2.24l-.825.444-1.94 1.12z" class="B"/><path d="m278.502 226.966 1.94-1.12-.824.445-1.94 1.12z" class="B"/><path d="m276.561 225.846 1.94 1.12-.824.445-1.94-1.12z" class="B"/><path d="m279.382 226.182-1.94 1.12 1.94 1.12 1.94-1.12z" class="B"/><path d="M279.382 226.182l-1.94 1.12v-2.24l1.94-1.12zm0 0l1.94 1.12v-2.24l-1.94-1.12z" class="B"/><path d="m279.825 225.69-1.94 1.121 1.94 1.12 1.94-1.12z" class="B"/><use href="#C" class="B"/><path d="m279.382 223.942-1.94 1.12 1.94 1.12 1.94-1.12z" class="B"/><path d="M279.382 228.422l1.94-1.12v-2.24l-1.94 1.12zm-1.94-1.12l1.94 1.12v-2.24l-1.94-1.12zm2.383-3.852l-1.94 1.12 1.94 1.12 1.94-1.12z" class="B"/><path d="M279.825 227.931l1.94-1.12v-2.24l-1.94 1.12zm-1.94-1.12l1.94 1.12v-2.24l-1.94-1.12z" class="B"/><path d="M279.382 226.182l-1.94 1.12.443-.49 1.94-1.121zm1.941 1.12l-1.94-1.12.442-.491 1.94 1.12z" class="B"/><path d="M279.382 226.182v-2.24l.443-.491 1.94 3.36z" class="B"/><path d="M281.323 227.302v-2.24l.442-.491-1.94 1.12zm-3.881 0l1.94 1.12.443-.49-1.94-1.12z" class="B"/><path d="M279.382 228.422l1.94-1.12.443-.49-1.94 1.12zm0-4.48l-1.94 1.12.443-.491 1.94-1.12zm1.941 1.12l-1.94-1.12.442-.491 1.94 1.12z" class="B"/><path d="M277.442 227.302v-2.24l.443-.491 1.94 3.36z" class="B"/><path d="M279.382 228.422v-2.24l.443-.491-1.94 1.12z" class="B"/><path d="m279.382 226.182 1.94-1.12.443-.491-1.94 1.12z" class="B"/><path d="m277.442 225.062 1.94 1.12.443-.491-1.94-1.12z" class="B"/><path d="m279.382 226.182-1.94 1.12 1.94 1.12 1.94-1.12z" class="B"/><path d="M279.382 226.182l-1.94 1.12v-2.24l1.94-1.12zm0 0l1.94 1.12v-2.24l-1.94-1.12zm-.88.784l-1.94 1.12 1.94 1.12 1.94-1.12z" class="B"/><path d="M278.502 226.966l-1.94 1.12v-2.24l1.94-1.12zm0 0l1.94 1.12v-2.24l-1.94-1.12z" class="B"/><path d="m279.382 223.942-1.94 1.12 1.94 1.12 1.94-1.12z" class="B"/><path d="M279.382 228.422l1.94-1.12v-2.24l-1.94 1.12zm-1.94-1.12l1.94 1.12v-2.24l-1.94-1.12z" class="B"/><path d="M278.502 224.726l-1.94 1.12 1.94 1.12 1.94-1.12zm0 4.481l1.94-1.12v-2.24l-1.94 1.12zm-1.941-1.12l1.94 1.12v-2.24l-1.94-1.12z" class="B"/><path d="m279.382 226.182-1.94 1.12-.88.785 1.94-1.12z" class="B"/><path d="m281.323 227.302-1.94-1.12-.881.784 1.94 1.12z" class="B"/><path d="M279.382 226.182v-2.24l-.88.784 1.94 3.36z" class="B"/><path d="M281.323 227.302v-2.24l-.881.784-1.94 1.12zm-3.881 0l1.94 1.12-.88.785-1.94-1.12z" class="B"/><path d="M279.382 228.422l1.94-1.12-.88.785-1.94 1.12zm0-4.48l-1.94 1.12-.88.784 1.94-1.12zm1.941 1.12l-1.94-1.12-.881.784 1.94 1.12z" class="B"/><path d="M277.442 227.302v-2.24l-.88.784 1.94 3.36z" class="B"/><path d="M279.382 228.422v-2.24l-.88.784-1.94 1.12z" class="B"/><path d="m279.382 226.182 1.94-1.12-.88.784-1.94 1.12z" class="B"/><path d="M277.442 225.062l1.94 1.12-.88.784-1.94-1.12zm24.432-29.214l-1.94 1.12 1.94 1.12 1.94-1.12z" class="B"/><path d="M301.874 195.848l-1.94 1.12v-2.24l1.94-1.12zm0 0l1.94 1.12v-2.24l-1.94-1.12zm4.892-2.418l-1.94 1.12 1.94 1.12 1.94-1.12z" class="B"/><path d="M306.766 193.43l-1.94 1.12v-2.24l1.94-1.12zm0 0l1.94 1.12v-2.24l-1.94-1.12zm-4.892.177l-1.94 1.12 1.94 1.12 1.94-1.12zm0 4.481l1.94-1.12v-2.24l-1.94 1.12zm-1.94-1.12l1.94 1.12v-2.24l-1.94-1.12z" class="B"/><path d="m306.766 191.19-1.94 1.12 1.94 1.12 1.94-1.12z" class="B"/><path d="M306.766 195.67l1.94-1.12v-2.24l-1.94 1.12zm-1.941-1.12l1.94 1.12v-2.24l-1.94-1.12z" class="B"/><path d="m301.874 195.848-1.94 1.12 4.891-2.418 1.94-1.12z" class="B"/><path d="m303.814 196.968-1.94-1.12 4.892-2.418 1.94 1.12z" class="B"/><path d="M301.874 195.848v-2.24l4.892-2.419 1.94 3.36z" class="B"/><path d="M303.814 196.968v-2.24l4.892-2.418-1.94 1.12z" class="B"/><path d="m299.934 196.968 1.94 1.12 4.892-2.418-1.94-1.12z" class="B"/><path d="M301.874 198.088l1.94-1.12 4.892-2.418-1.94 1.12zm0-4.481l-1.94 1.12 4.891-2.417 1.94-1.12z" class="B"/><path d="m303.814 194.728-1.94-1.12 4.892-2.419 1.94 1.12z" class="B"/><path d="M299.934 196.968v-2.24l4.891-2.418 1.94 3.36z" class="B"/><path d="M301.874 198.088v-2.24l4.892-2.418-1.94 1.12z" class="B"/><path d="m301.874 195.848 1.94-1.12 4.892-2.418-1.94 1.12z" class="B"/><path d="m299.934 194.728 1.94 1.12 4.892-2.418-1.94-1.12z" class="B"/><path d="m301.874 195.848-1.94 1.12 1.94 1.12 1.94-1.12z" class="B"/><path d="M301.874 195.848l-1.94 1.12v-2.24l1.94-1.12zm0 0l1.94 1.12v-2.24l-1.94-1.12z" class="B"/><path d="m300.673 196.392-1.94 1.12 1.94 1.12 1.94-1.12z" class="B"/><path d="M300.673 196.392l-1.94 1.12v-2.24l1.94-1.12zm0 0l1.94 1.12v-2.24l-1.94-1.12z" class="B"/><path d="M301.874 193.607l-1.94 1.12 1.94 1.12 1.94-1.12zm0 4.481l1.94-1.12v-2.24l-1.94 1.12zm-1.94-1.12l1.94 1.12v-2.24l-1.94-1.12z" class="B"/><use href="#G" class="B"/><path d="m301.874 195.848-1.94 1.12-1.202.544 1.94-1.12z" class="B"/><path d="m303.814 196.968-1.94-1.12-1.201.544 1.94 1.12z" class="B"/><path d="M301.874 195.848v-2.24l-1.201.544 1.94 3.36z" class="B"/><path d="M303.814 196.968v-2.24l-1.201.544-1.94 1.12zm-3.88 0l1.94 1.12-1.201.545-1.94-1.12z" class="B"/><path d="M301.874 198.088l1.94-1.12-1.201.544-1.94 1.12zm0-4.481l-1.94 1.12-1.202.545 1.94-1.12z" class="B"/><path d="M303.814 194.728l-1.94-1.12-1.201.544 1.94 1.12zm-3.88 2.24v-2.24l-1.202.544 1.94 3.36z" class="B"/><path d="M301.874 198.088v-2.24l-1.201.544-1.94 1.12z" class="B"/><path d="m301.874 195.848 1.94-1.12-1.201.544-1.94 1.12z" class="B"/><path d="m299.934 194.728 1.94 1.12-1.201.544-1.94-1.12z" class="B"/><path d="m300.673 196.392-1.94 1.12 1.94 1.12 1.94-1.12z" class="B"/><path d="M300.673 196.392l-1.94 1.12v-2.24l1.94-1.12zm0 0l1.94 1.12v-2.24l-1.94-1.12z" class="B"/><path d="m301.874 195.848-1.94 1.12 1.94 1.12 1.94-1.12z" class="B"/><path d="M301.874 195.848l-1.94 1.12v-2.24l1.94-1.12zm0 0l1.94 1.12v-2.24l-1.94-1.12z" class="B"/><use href="#G" class="B"/><path d="M301.874 193.607l-1.94 1.12 1.94 1.12 1.94-1.12zm0 4.481l1.94-1.12v-2.24l-1.94 1.12zm-1.94-1.12l1.94 1.12v-2.24l-1.94-1.12z" class="B"/><path d="m300.673 196.392-1.94 1.12 1.2-.544 1.941-1.12z" class="B"/><path d="m302.613 197.512-1.94-1.12 1.201-.544 1.94 1.12z" class="B"/><path d="M300.673 196.392v-2.24l1.201-.545 1.94 3.36z" class="B"/><path d="M302.613 197.512v-2.24l1.201-.544-1.94 1.12zm-3.881 0l1.94 1.12 1.202-.544-1.94-1.12z" class="B"/><path d="M300.673 198.633l1.94-1.12 1.201-.545-1.94 1.12zm0-4.481l-1.94 1.12 1.2-.544 1.941-1.12z" class="B"/><path d="M302.613 195.272l-1.94-1.12 1.201-.545 1.94 1.12zm-3.881 2.24v-2.24l1.202-.544 1.94 3.36z" class="B"/><path d="M300.673 198.633v-2.24l1.201-.545-1.94 1.12zm0-2.241l1.94-1.12 1.201-.544-1.94 1.12z" class="B"/><path d="m298.732 195.272 1.94 1.12 1.202-.544-1.94-1.12z" class="B"/><path d="m300.673 196.392-1.94 1.12 1.94 1.12 1.94-1.12z" class="B"/><path d="M300.673 196.392l-1.94 1.12v-2.24l1.94-1.12zm0 0l1.94 1.12v-2.24l-1.94-1.12zm-3.793 1.637l-1.94 1.12 1.94 1.12 1.94-1.12z" class="B"/><path d="M296.88 198.029l-1.94 1.12v-2.24l1.94-1.12zm0 0l1.94 1.12v-2.24l-1.94-1.12zm3.793-3.877l-1.94 1.12 1.94 1.12 1.94-1.12zm0 4.481l1.94-1.12v-2.24l-1.94 1.12z" class="B"/><path d="m298.732 197.512 1.94 1.12v-2.24l-1.94-1.12z" class="B"/><path d="m296.88 195.789-1.94 1.12 1.94 1.12 1.94-1.12z" class="B"/><use href="#F" class="B"/><path d="m300.673 196.392-1.94 1.12-3.793 1.637 1.94-1.12z" class="B"/><path d="m302.613 197.512-1.94-1.12-3.793 1.637 1.94 1.12z" class="B"/><path d="M300.673 196.392v-2.24l-3.793 1.637 1.94 3.36z" class="B"/><path d="M302.613 197.512v-2.24l-3.793 1.637-1.94 1.12z" class="B"/><path d="m298.732 197.512 1.94 1.12-3.792 1.637-1.94-1.12z" class="B"/><path d="M300.673 198.633l1.94-1.12-3.793 1.636-1.94 1.12zm0-4.481l-1.94 1.12-3.793 1.637 1.94-1.12z" class="B"/><path d="m302.613 195.272-1.94-1.12-3.793 1.637 1.94 1.12z" class="B"/><path d="M298.732 197.512v-2.24l-3.792 1.637 1.94 3.36z" class="B"/><path d="M300.673 198.633v-2.24l-3.793 1.636-1.94 1.12zm0-2.241l1.94-1.12-3.793 1.637-1.94 1.12z" class="B"/><path d="M298.732 195.272l1.94 1.12-3.792 1.637-1.94-1.12zm-111.145 4.371l-1.94 1.12 1.94 1.12 1.94-1.12z" class="B"/><path d="M187.587 199.643l-1.94 1.12v-2.24l1.94-1.12zm0 0l1.94 1.12v-2.24l-1.94-1.12zm8.031-2.355l-1.94 1.12 1.94 1.12 1.94-1.12z" class="B"/><path d="M195.618 197.288l-1.94 1.12v-2.24l1.94-1.12zm0 0l1.94 1.12v-2.24l-1.94-1.12zm-8.031.115l-1.94 1.12 1.94 1.12 1.94-1.12zm0 4.481l1.94-1.12v-2.24l-1.94 1.12z" class="B"/><path d="M185.647 200.764l1.94 1.12v-2.24l-1.94-1.12zm9.971-5.716l-1.94 1.12 1.94 1.12 1.94-1.12zm0 4.481l1.94-1.12v-2.24l-1.94 1.12z" class="B"/><path d="m193.678 198.408 1.94 1.12v-2.24l-1.94-1.12z" class="B"/><path d="m187.587 199.643-1.94 1.12 8.03-2.355 1.941-1.12z" class="B"/><path d="m189.527 200.764-1.94-1.12 8.031-2.356 1.94 1.12z" class="B"/><path d="M187.587 199.643v-2.24l8.031-2.355 1.94 3.36z" class="B"/><path d="M189.527 200.764v-2.24l8.031-2.356-1.94 1.12z" class="B"/><path d="m185.647 200.764 1.94 1.12 8.031-2.355-1.94-1.12z" class="B"/><path d="M187.587 201.884l1.94-1.12 8.031-2.356-1.94 1.12zm0-4.481l-1.94 1.12 8.03-2.355 1.941-1.12z" class="B"/><path d="m189.527 198.523-1.94-1.12 8.031-2.355 1.94 1.12z" class="B"/><path d="M185.647 200.764v-2.24l8.03-2.356 1.941 3.36z" class="B"/><path d="M187.587 201.884v-2.24l8.031-2.356-1.94 1.12z" class="B"/><path d="m187.587 199.643 1.94-1.12 8.031-2.355-1.94 1.12z" class="B"/><path d="m185.647 198.523 1.94 1.12 8.031-2.355-1.94-1.12z" class="B"/><path d="m187.587 199.643-1.94 1.12 1.94 1.12 1.94-1.12z" class="B"/><path d="M187.587 199.643l-1.94 1.12v-2.24l1.94-1.12zm0 0l1.94 1.12v-2.24l-1.94-1.12z" class="B"/><path d="m186.84 199.875-1.94 1.12 1.94 1.12 1.94-1.12z" class="B"/><path d="M186.84 199.875l-1.94 1.12v-2.24l1.94-1.12zm0 0l1.94 1.12v-2.24l-1.94-1.12z" class="B"/><path d="M187.587 197.403l-1.94 1.12 1.94 1.12 1.94-1.12zm0 4.481l1.94-1.12v-2.24l-1.94 1.12z" class="B"/><path d="m185.647 200.764 1.94 1.12v-2.24l-1.94-1.12z" class="B"/><path d="M186.84 197.634l-1.94 1.12 1.94 1.12 1.94-1.12zm0 4.481l1.94-1.12v-2.24l-1.94 1.12zm-1.94-1.12l1.94 1.12v-2.24l-1.94-1.12z" class="B"/><path d="m187.587 199.643-1.94 1.12-.747.232 1.94-1.12z" class="B"/><path d="m189.527 200.764-1.94-1.12-.746.23 1.94 1.12z" class="B"/><path d="M187.587 199.643v-2.24l-.746.231 1.94 3.36z" class="B"/><path d="M189.527 200.764v-2.24l-.746.23-1.94 1.12zm-3.88 0l1.94 1.12-.746.231-1.94-1.12z" class="B"/><path d="M187.587 201.884l1.94-1.12-.746.23-1.94 1.121zm0-4.481l-1.94 1.12-.747.231 1.94-1.12z" class="B"/><path d="M189.527 198.523l-1.94-1.12-.746.231 1.94 1.12zm-3.88 2.241v-2.24l-.747.23 1.94 3.361z" class="B"/><path d="M187.587 201.884v-2.24l-.746.23-1.94 1.12z" class="B"/><path d="m187.587 199.643 1.94-1.12-.746.231-1.94 1.12z" class="B"/><path d="M185.647 198.523l1.94 1.12-.746.232-1.94-1.12zm-11.317 6.719l-1.94 1.12 1.94 1.12 1.94-1.12z" class="B"/><path d="M174.33 205.242l-1.94 1.12v-2.24l1.94-1.12zm0 0l1.94 1.12v-2.24l-1.94-1.12zm8.355-3.982l-1.94 1.12 1.94 1.12 1.94-1.12z" class="B"/><path d="M182.685 201.26l-1.94 1.12v-2.24l1.94-1.12zm0 0l1.94 1.12v-2.24l-1.94-1.12zm-8.355 1.741l-1.94 1.12 1.94 1.12 1.94-1.12zm0 4.481l1.94-1.12v-2.24l-1.94 1.12zm-1.94-1.12l1.94 1.12v-2.24l-1.94-1.12z" class="B"/><path d="m182.685 199.02-1.94 1.12 1.94 1.12 1.94-1.12z" class="B"/><path d="M182.685 203.5l1.94-1.12v-2.24l-1.94 1.12zm-1.94-1.12l1.94 1.12v-2.24l-1.94-1.12z" class="B"/><path d="m174.33 205.242-1.94 1.12 8.355-3.982 1.94-1.12z" class="B"/><path d="m176.27 206.362-1.94-1.12 8.355-3.982 1.94 1.12z" class="B"/><path d="M174.33 205.242v-2.24l8.355-3.982 1.94 3.36z" class="B"/><path d="M176.27 206.362v-2.24l8.355-3.982-1.94 1.12z" class="B"/><path d="m172.39 206.362 1.94 1.12 8.355-3.982-1.94-1.12z" class="B"/><path d="M174.33 207.482l1.94-1.12 8.355-3.982-1.94 1.12zm0-4.481l-1.94 1.12 8.355-3.981 1.94-1.12z" class="B"/><path d="m176.27 204.121-1.94-1.12 8.355-3.981 1.94 1.12z" class="B"/><path d="M172.39 206.362v-2.24l8.355-3.982 1.94 3.36z" class="B"/><path d="M174.33 207.482v-2.24l8.355-3.982-1.94 1.12z" class="B"/><path d="m174.33 205.242 1.94-1.12 8.355-3.982-1.94 1.12z" class="B"/><path d="m172.39 204.121 1.94 1.12 8.355-3.98-1.94-1.121z" class="B"/><path d="m174.33 205.242-1.94 1.12 1.94 1.12 1.94-1.12z" class="B"/><path d="M174.33 205.242l-1.94 1.12v-2.24l1.94-1.12zm0 0l1.94 1.12v-2.24l-1.94-1.12zm-11.353 6.28l-1.94 1.12 1.94 1.12 1.94-1.12z" class="B"/><path d="M162.977 211.522l-1.94 1.12v-2.24l1.94-1.12zm0 0l1.94 1.12v-2.24l-1.94-1.12zm11.353-8.521l-1.94 1.12 1.94 1.12 1.94-1.12zm0 4.481l1.94-1.12v-2.24l-1.94 1.12zm-1.94-1.12l1.94 1.12v-2.24l-1.94-1.12z" class="B"/><path d="M162.977 209.282l-1.94 1.12 1.94 1.12 1.94-1.12zm0 4.481l1.94-1.12v-2.24l-1.94 1.12zm-1.94-1.12l1.94 1.12v-2.24l-1.94-1.12z" class="B"/><path d="m174.33 205.242-1.94 1.12-11.353 6.28 1.94-1.12z" class="B"/><path d="m176.27 206.362-1.94-1.12-11.353 6.28 1.94 1.12z" class="B"/><path d="M174.33 205.242v-2.24l-11.353 6.28 1.94 3.36z" class="B"/><path d="M176.27 206.362v-2.24l-11.353 6.28-1.94 1.12z" class="B"/><path d="m172.39 206.362 1.94 1.12-11.353 6.28-1.94-1.12z" class="B"/><path d="M174.33 207.482l1.94-1.12-11.353 6.28-1.94 1.12zm0-4.481l-1.94 1.12-11.353 6.281 1.94-1.12z" class="B"/><path d="m176.27 204.121-1.94-1.12-11.353 6.281 1.94 1.12z" class="B"/><path d="M172.39 206.362v-2.24l-11.353 6.28 1.94 3.36z" class="B"/><path d="M174.33 207.482v-2.24l-11.353 6.28-1.94 1.12z" class="B"/><path d="m174.33 205.242 1.94-1.12-11.353 6.28-1.94 1.12z" class="B"/><path d="M172.39 204.121l1.94 1.12-11.353 6.281-1.94-1.12zm105.287 23.29l-1.94 1.12 1.94 1.12 1.94-1.12z" class="B"/><path d="M277.677 227.411l-1.94 1.12v-2.24l1.94-1.12zm0 0l1.94 1.12v-2.24l-1.94-1.12z" class="B"/><path d="m276.443 228.016-1.94 1.12 1.94 1.12 1.94-1.12z" class="B"/><path d="M276.443 228.016l-1.94 1.12v-2.24l1.94-1.12zm0 0l1.94 1.12v-2.24l-1.94-1.12z" class="B"/><path d="M277.677 225.171l-1.94 1.12 1.94 1.12 1.94-1.12zm0 4.481l1.94-1.12v-2.24l-1.94 1.12z" class="B"/><path d="m275.737 228.532 1.94 1.12v-2.24l-1.94-1.12z" class="B"/><path d="M276.443 225.776l-1.94 1.12 1.94 1.12 1.94-1.12zm0 4.481l1.94-1.12v-2.24l-1.94 1.12zm-1.94-1.12l1.94 1.12v-2.24l-1.94-1.12z" class="B"/><path d="m277.677 227.411-1.94 1.12-1.234.606 1.94-1.12z" class="B"/><path d="m279.618 228.532-1.94-1.12-1.235.604 1.94 1.12z" class="B"/><path d="M277.677 227.411v-2.24l-1.234.605 1.94 3.36z" class="B"/><path d="M279.618 228.532v-2.24l-1.235.604-1.94 1.12zm-3.881 0l1.94 1.12-1.234.605-1.94-1.12z" class="B"/><path d="M277.677 229.652l1.94-1.12-1.234.605-1.94 1.12zm0-4.481l-1.94 1.12-1.234.605 1.94-1.12z" class="B"/><path d="M279.618 226.291l-1.94-1.12-1.235.605 1.94 1.12zm-3.881 2.241v-2.24l-1.234.604 1.94 3.36z" class="B"/><path d="M277.677 229.652v-2.24l-1.234.604-1.94 1.12zm0-2.241l1.94-1.12-1.234.605-1.94 1.12z" class="B"/><path d="m275.737 226.291 1.94 1.12-1.234.605-1.94-1.12z" class="B"/><path d="m277.677 227.411-1.94 1.12 1.94 1.12 1.94-1.12z" class="B"/><path d="M277.677 227.411l-1.94 1.12v-2.24l1.94-1.12zm0 0l1.94 1.12v-2.24l-1.94-1.12z" class="B"/><path d="m278.502 226.966-1.94 1.12 1.94 1.12 1.94-1.12z" class="B"/><path d="M278.502 226.966l-1.94 1.12v-2.24l1.94-1.12zm0 0l1.94 1.12v-2.24l-1.94-1.12z" class="B"/><path d="M277.677 225.171l-1.94 1.12 1.94 1.12 1.94-1.12zm0 4.481l1.94-1.12v-2.24l-1.94 1.12z" class="B"/><path d="M275.737 228.532l1.94 1.12v-2.24l-1.94-1.12zm2.765-3.806l-1.94 1.12 1.94 1.12 1.94-1.12zm0 4.481l1.94-1.12v-2.24l-1.94 1.12z" class="B"/><path d="m276.561 228.087 1.94 1.12v-2.24l-1.94-1.12z" class="B"/><path d="m277.677 227.411-1.94 1.12.824-.444 1.94-1.12z" class="B"/><path d="m279.618 228.532-1.94-1.12.824-.446 1.94 1.12z" class="B"/><path d="M277.677 227.411v-2.24l.825-.445 1.94 3.36z" class="B"/><path d="M279.618 228.532v-2.24l.824-.446-1.94 1.12zm-3.881 0l1.94 1.12.825-.445-1.94-1.12z" class="B"/><path d="M277.677 229.652l1.94-1.12.825-.445-1.94 1.12zm0-4.481l-1.94 1.12.824-.445 1.94-1.12z" class="B"/><path d="M279.618 226.291l-1.94-1.12.824-.445 1.94 1.12zm-3.881 2.241v-2.24l.824-.446 1.94 3.36z" class="B"/><path d="M277.677 229.652v-2.24l.825-.446-1.94 1.12z" class="B"/><path d="m277.677 227.411 1.94-1.12.825-.445-1.94 1.12z" class="B"/><path d="M275.737 226.291l1.94 1.12.825-.445-1.94-1.12zm-8.415 1.943l-1.94 1.12 1.94 1.12 1.94-1.12z" class="B"/><path d="M267.322 228.234l-1.94 1.12v-2.24l1.94-1.12zm0 0l1.94 1.12v-2.24l-1.94-1.12z" class="B"/><path d="m266.88 228.138-1.94 1.12 1.94 1.12 1.94-1.12z" class="B"/><path d="M266.88 228.138l-1.94 1.12v-2.24l1.94-1.12zm0 0l1.94 1.12v-2.24l-1.94-1.12z" class="B"/><path d="M267.322 225.994l-1.94 1.12 1.94 1.12 1.94-1.12zm0 4.481l1.94-1.12v-2.24l-1.94 1.12zm-1.941-1.12l1.94 1.12v-2.24l-1.94-1.12z" class="B"/><path d="M266.88 225.897l-1.94 1.12 1.94 1.12 1.94-1.12zm0 4.481l1.94-1.12v-2.24l-1.94 1.12z" class="B"/><path d="m264.94 229.258 1.94 1.12v-2.24l-1.94-1.12z" class="B"/><path d="m267.322 228.234-1.94 1.12-.442-.096 1.94-1.12z" class="B"/><path d="m269.262 229.355-1.94-1.12-.442-.097 1.94 1.12z" class="B"/><path d="M267.322 228.234v-2.24l-.442-.097 1.94 3.36z" class="B"/><path d="M269.262 229.355v-2.24l-.442-.098-1.94 1.12zm-3.881 0l1.94 1.12-.44-.097-1.941-1.12z" class="B"/><path d="M267.322 230.475l1.94-1.12-.442-.097-1.94 1.12zm0-4.481l-1.94 1.12-.442-.097 1.94-1.12z" class="B"/><path d="M269.262 227.114l-1.94-1.12-.442-.097 1.94 1.12zm-3.881 2.241v-2.24l-.441-.098 1.94 3.361z" class="B"/><path d="M267.322 230.475v-2.24l-.442-.097-1.94 1.12zm0-2.241l1.94-1.12-.442-.097-1.94 1.12z" class="B"/><path d="m265.381 227.114 1.94 1.12-.44-.096-1.941-1.12z" class="B"/><path d="m267.322 228.234-1.94 1.12 1.94 1.12 1.94-1.12z" class="B"/><path d="M267.322 228.234l-1.94 1.12v-2.24l1.94-1.12zm0 0l1.94 1.12v-2.24l-1.94-1.12z" class="B"/><path d="m267.67 228.297-1.94 1.12 1.94 1.12 1.94-1.12z" class="B"/><path d="M267.67 228.297l-1.94 1.12v-2.24l1.94-1.12zm0 0l1.94 1.12v-2.24l-1.94-1.12z" class="B"/><path d="M267.322 225.994l-1.94 1.12 1.94 1.12 1.94-1.12zm0 4.481l1.94-1.12v-2.24l-1.94 1.12zm-1.941-1.12l1.94 1.12v-2.24l-1.94-1.12z" class="B"/><path d="M267.67 226.056l-1.94 1.12 1.94 1.12 1.94-1.12zm0 4.481l1.94-1.12v-2.24l-1.94 1.12zm-1.94-1.12l1.94 1.12v-2.24l-1.94-1.12z" class="B"/><path d="m267.322 228.234-1.94 1.12.348.063 1.94-1.12z" class="B"/><path d="m269.262 229.355-1.94-1.12.348.062 1.94 1.12z" class="B"/><path d="M267.322 228.234v-2.24l.348.062 1.94 3.36z" class="B"/><path d="M269.262 229.355v-2.24l.348.062-1.94 1.12zm-3.881 0l1.94 1.12.35.062-1.941-1.12z" class="B"/><path d="M267.322 230.475l1.94-1.12.348.062-1.94 1.12zm0-4.481l-1.94 1.12.348.063 1.94-1.12z" class="B"/><path d="M269.262 227.114l-1.94-1.12.348.062 1.94 1.12zm-3.881 2.241v-2.24l.349.062 1.94 3.36z" class="B"/><path d="M267.322 230.475v-2.24l.348.062-1.94 1.12zm0-2.241l1.94-1.12.348.063-1.94 1.12z" class="B"/><path d="M265.381 227.114l1.94 1.12.35.063-1.941-1.12zm1.499 1.024l-1.94 1.12 1.94 1.12 1.94-1.12z" class="B"/><path d="M266.88 228.138l-1.94 1.12v-2.24l1.94-1.12zm0 0l1.94 1.12v-2.24l-1.94-1.12z" class="B"/><path d="m265.9 227.93-1.94 1.12 1.94 1.12 1.94-1.12z" class="B"/><path d="M265.9 227.93l-1.94 1.12v-2.24l1.94-1.12zm0 0l1.94 1.12v-2.24l-1.94-1.12z" class="B"/><path d="M266.88 225.897l-1.94 1.12 1.94 1.12 1.94-1.12zm0 4.481l1.94-1.12v-2.24l-1.94 1.12z" class="B"/><path d="m264.94 229.258 1.94 1.12v-2.24l-1.94-1.12z" class="B"/><path d="m265.9 225.69-1.94 1.12 1.94 1.12 1.94-1.12z" class="B"/><path d="M265.9 230.17l1.94-1.12v-2.24l-1.94 1.12zm-1.94-1.12l1.94 1.12v-2.24l-1.94-1.12z" class="B"/><path d="m266.88 228.138-1.94 1.12-.98-.207 1.94-1.12z" class="B"/><path d="m268.82 229.258-1.94-1.12-.98-.208 1.94 1.12z" class="B"/><path d="M266.88 228.138v-2.24l-.98-.208 1.94 3.36z" class="B"/><path d="M268.82 229.258v-2.24l-.98-.208-1.94 1.12zm-3.88 0l1.94 1.12-.98-.207-1.94-1.12z" class="B"/><path d="M266.88 230.378l1.94-1.12-.98-.207-1.94 1.12zm0-4.481l-1.94 1.12-.98-.207 1.94-1.12z" class="B"/><path d="M268.82 227.017l-1.94-1.12-.98-.207 1.94 1.12zm-3.88 2.241v-2.24l-.98-.208 1.94 3.36z" class="B"/><path d="M266.88 230.378v-2.24l-.98-.208-1.94 1.12z" class="B"/><path d="m266.88 228.138 1.94-1.12-.98-.208-1.94 1.12z" class="B"/><path d="M264.94 227.017l1.94 1.12-.98-.207-1.94-1.12zm2.73 1.28l-1.94 1.12 1.94 1.12 1.94-1.12z" class="B"/><path d="M267.67 228.297l-1.94 1.12v-2.24l1.94-1.12zm0 0l1.94 1.12v-2.24l-1.94-1.12z" class="B"/><path d="m270.39 228.53-1.941 1.12 1.94 1.12 1.94-1.12z" class="B"/><path d="M270.39 228.53l-1.941 1.12v-2.24l1.94-1.12zm0 0l1.94 1.12v-2.24l-1.94-1.12z" class="B"/><path d="M267.67 226.056l-1.94 1.12 1.94 1.12 1.94-1.12zm0 4.481l1.94-1.12v-2.24l-1.94 1.12zm-1.94-1.12l1.94 1.12v-2.24l-1.94-1.12z" class="B"/><path d="M270.39 226.29l-1.941 1.12 1.94 1.12 1.94-1.12zm0 4.48l1.94-1.12v-2.24l-1.94 1.12z" class="B"/><path d="m268.449 229.65 1.94 1.12v-2.24l-1.94-1.12z" class="B"/><path d="m267.67 228.297-1.94 1.12 2.719.233 1.94-1.12z" class="B"/><path d="m269.61 229.417-1.94-1.12 2.72.233 1.94 1.12z" class="B"/><path d="M267.67 228.297v-2.24l2.72.233 1.94 3.36z" class="B"/><path d="M269.61 229.417v-2.24l2.72.233-1.94 1.12zm-3.88 0l1.94 1.12 2.72.233-1.941-1.12z" class="B"/><path d="M267.67 230.537l1.94-1.12 2.72.233-1.94 1.12zm0-4.481l-1.94 1.12 2.719.234 1.94-1.12z" class="B"/><path d="M269.61 227.177l-1.94-1.12 2.72.233 1.94 1.12zm-3.88 2.24v-2.24l2.719.233 1.94 3.36z" class="B"/><path d="M267.67 230.537v-2.24l2.72.233-1.941 1.12z" class="B"/><path d="m267.67 228.297 1.94-1.12 2.72.233-1.94 1.12z" class="B"/><path d="m265.73 227.177 1.94 1.12 2.72.233-1.941-1.12z" class="B"/><path d="m267.67 228.297-1.94 1.12 1.94 1.12 1.94-1.12z" class="B"/><path d="M267.67 228.297l-1.94 1.12v-2.24l1.94-1.12zm0 0l1.94 1.12v-2.24l-1.94-1.12z" class="B"/><path d="m267.322 228.234-1.94 1.12 1.94 1.12 1.94-1.12z" class="B"/><path d="M267.322 228.234l-1.94 1.12v-2.24l1.94-1.12zm0 0l1.94 1.12v-2.24l-1.94-1.12z" class="B"/><path d="M267.67 226.056l-1.94 1.12 1.94 1.12 1.94-1.12zm0 4.481l1.94-1.12v-2.24l-1.94 1.12zm-1.94-1.12l1.94 1.12v-2.24l-1.94-1.12z" class="B"/><path d="M267.322 225.994l-1.94 1.12 1.94 1.12 1.94-1.12zm0 4.481l1.94-1.12v-2.24l-1.94 1.12zm-1.941-1.12l1.94 1.12v-2.24l-1.94-1.12z" class="B"/><path d="m267.67 228.297-1.94 1.12-.349-.062 1.94-1.12z" class="B"/><path d="m269.61 229.417-1.94-1.12-.348-.063 1.94 1.12z" class="B"/><path d="M267.67 228.297v-2.24l-.348-.063 1.94 3.36z" class="B"/><path d="M269.61 229.417v-2.24l-.348-.063-1.94 1.12zm-3.88 0l1.94 1.12-.348-.062-1.94-1.12z" class="B"/><path d="M267.67 230.537l1.94-1.12-.348-.062-1.94 1.12zm0-4.481l-1.94 1.12-.349-.062 1.94-1.12z" class="B"/><path d="M269.61 227.177l-1.94-1.12-.348-.063 1.94 1.12zm-3.88 2.24v-2.24l-.349-.063 1.94 3.36z" class="B"/><path d="M267.67 230.537v-2.24l-.348-.063-1.94 1.12z" class="B"/><path d="m267.67 228.297 1.94-1.12-.348-.063-1.94 1.12z" class="B"/><path d="m265.73 227.177 1.94 1.12-.348-.063-1.94-1.12z" class="B"/></g><defs><path id="A" d="M0 2.4a2.4 2.4 0 1 0 0-4.8 2.4 2.4 0 0 0 0 4.8z" class="C"/><path id="B" d="M232.777 196.264l1.94-1.12v-2.241l-1.94 1.12zm-1.94-1.121l1.94 1.12v-2.24l-1.94-1.12z"/><path id="C" d="M279.825 225.69l-1.94 1.121v-2.24l1.94-1.12zm0 0l1.94 1.121v-2.24l-1.94-1.12z"/><path id="D" d="M288.53 214.47l1.941-1.12v-2.24l-1.94 1.12zm-1.94-1.12l1.94 1.12v-2.24l-1.94-1.12z"/><path id="E" d="M288.519 210.008l-1.94 1.12 1.94 1.12 1.94-1.12zm0 4.482l1.94-1.121v-2.24l-1.94 1.12zm-1.94-1.121l1.94 1.12v-2.24l-1.94-1.12z"/><path id="F" d="M296.88 200.27l1.94-1.12v-2.241l-1.94 1.12zm-1.94-1.12l1.94 1.12v-2.241l-1.94-1.12z"/><path id="G" d="M300.673 194.152l-1.94 1.12 1.94 1.12 1.94-1.12zm0 4.481l1.94-1.12v-2.24l-1.94 1.12zm-1.941-1.121l1.94 1.12v-2.24l-1.94-1.12z"/></defs><g class="B C E"><use href="#A" x="282.337" y="238.561"/></g><g class="B C E"><use href="#A" x="308.069" y="245.743"/></g><g class="B C E"><use href="#A" x="269.836" y="232.08"/></g><g class="B C E"><use href="#A" x="374.434" y="202.173"/></g><g class="B C E"><use href="#A" x="282.988" y="232.043"/></g><g class="B C E"><use href="#A" x="231.046" y="247.501"/></g><g class="B C E"><use href="#A" x="206.15" y="248.089"/></g><g class="B C E"><use href="#A" x="326.941" y="226.118"/></g><g class="B C E"><use href="#A" x="215.495" y="205.502"/></g><g class="B C E"><use href="#A" x="212.65" y="208.593"/></g><g class="B C E"><use href="#A" x="200.205" y="209.635"/></g><g class="B C E"><use href="#A" x="255.915" y="264.21"/></g><g class="B C E"><use href="#A" x="215.929" y="254.96"/></g><g class="B C E"><use href="#A" x="347.791" y="207.325"/></g><g class="B C E"><use href="#A" x="187.819" y="251.185"/></g><g class="B C E"><use href="#A" x="322.115" y="221.265"/></g><g class="B C E"><use href="#A" x="237.229" y="228.875"/></g><g class="B C E"><use href="#A" x="377.493" y="196.47"/></g><g class="B C E"><use href="#A" x="159.821" y="230.519"/></g><g class="B C E"><use href="#A" x="327.497" y="212.383"/></g><g class="B C E"><use href="#A" x="333.152" y="215.938"/></g><g class="B C E"><use href="#A" x="172.083" y="237.105"/></g><g class="B C E"><use href="#A" x="312.267" y="233.548"/></g><g class="B C E"><use href="#A" x="197.093" y="201.649"/></g><g class="B C E"><use href="#A" x="271.07" y="246.018"/></g><g class="B C E"><use href="#A" x="266.982" y="245.758"/></g><g class="B C E"><use href="#A" x="316.463" y="226.014"/></g><g class="B C E"><use href="#A" x="340.377" y="181.023"/></g><g class="B C E"><use href="#A" x="192.044" y="204.458"/></g><g class="B C E"><use href="#A" x="207.779" y="224.847"/></g><g class="B C E"><use href="#A" x="318.182" y="256.75"/></g><g class="B C E"><use href="#A" x="242.061" y="262.28"/></g><g class="B C E"><use href="#A" x="211.767" y="242.914"/></g><g class="B C E"><use href="#A" x="209.866" y="254"/></g><g class="B C E"><use href="#A" x="329.688" y="233.308"/></g><g class="B C E"><use href="#A" x="199.619" y="253.688"/></g><g class="B C E"><use href="#A" x="308.349" y="236.5"/></g><g class="B C E"><use href="#A" x="196.469" y="212.063"/></g><g class="B C E"><use href="#A" x="196.62" y="249.54"/></g><g class="B C E"><use href="#A" x="197.923" y="246.09"/></g><g class="B C E"><use href="#A" x="344.722" y="192.571"/></g><g class="B C E"><use href="#A" x="229.819" y="263.33"/></g><g class="B C E"><use href="#A" x="294.581" y="238.803"/></g><g class="B C E"><use href="#A" x="219.901" y="170.985"/></g><g class="B C E"><use href="#A" x="245" y="239.351"/></g><g class="B C E"><use href="#A" x="270.761" y="242.659"/></g><g class="B C E"><use href="#A" x="197.261" y="259.356"/></g><g class="B C E"><use href="#A" x="273.792" y="241.141"/></g><g class="B C E"><use href="#A" x="240.624" y="270.431"/></g><g class="B C E"><use href="#A" x="198.908" y="290.646"/></g><defs><path id="H" d="m0 2.4 2.4-4.8h-4.8z" stroke-linejoin="miter" class="D"/></defs><g class="B D F"><use href="#H" x="175.261" y="196.497"/></g><g class="B D F"><use href="#H" x="256.594" y="175.187"/></g><g class="B D F"><use href="#H" x="155.79" y="157.604"/></g><g class="B D F"><use href="#H" x="152.49" y="176.781"/></g><g class="B D F"><use href="#H" x="209.315" y="167.723"/></g><g class="B D F"><use href="#H" x="164.414" y="166.809"/></g><g class="B D F"><use href="#H" x="141.064" y="186.421"/></g><g class="B D F"><use href="#H" x="264.08" y="176.29"/></g><g class="B D F"><use href="#H" x="242.948" y="217.554"/></g><g class="B D F"><use href="#H" x="242.604" y="174.865"/></g><g class="B D F"><use href="#H" x="161.977" y="179.703"/></g><g class="B D F"><use href="#H" x="209.24" y="170.018"/></g><g class="B D F"><use href="#H" x="85.451" y="225.621"/></g><g class="B D F"><use href="#H" x="153.141" y="169.479"/></g><g class="B D F"><use href="#H" x="145.075" y="191.358"/></g><g class="B D F"><use href="#H" x="104.328" y="228.329"/></g><g class="B D F"><use href="#H" x="224.508" y="160.195"/></g><g class="B D F"><use href="#H" x="170.85" y="156.125"/></g><g class="B D F"><use href="#H" x="269.957" y="201.337"/></g><g class="B D F"><use href="#H" x="146.411" y="180.264"/></g><g class="B D F"><use href="#H" x="126.766" y="213.353"/></g><g class="B D F"><use href="#H" x="238.21" y="154.902"/></g><g class="B D F"><use href="#H" x="148.565" y="175.851"/></g><g class="B D F"><use href="#H" x="231.257" y="134.902"/></g><g class="B D F"><use href="#H" x="290.569" y="196.057"/></g><g class="B D F"><use href="#H" x="113.194" y="217.717"/></g><g class="B D F"><use href="#H" x="260.587" y="162.438"/></g><g class="B D F"><use href="#H" x="265.647" y="214.743"/></g><g class="B D F"><use href="#H" x="195.037" y="165.942"/></g><g class="B D F"><use href="#H" x="152.251" y="194.838"/></g><g class="B D F"><use href="#H" x="93.769" y="211.227"/></g><g class="B D F"><use href="#H" x="274.904" y="184.935"/></g><g class="B D F"><use href="#H" x="266.77" y="224.651"/></g><g class="B D F"><use href="#H" x="250.297" y="141.526"/></g><g class="B D F"><use href="#H" x="289.868" y="192.086"/></g><g class="B D F"><use href="#H" x="250.649" y="192.778"/></g><g class="B D F"><use href="#H" x="248.266" y="194.513"/></g><g class="B D F"><use href="#H" x="178.57" y="169.731"/></g><g class="B D F"><use href="#H" x="205.496" y="165.217"/></g><g class="B D F"><use href="#H" x="264.698" y="194.775"/></g><g class="B D F"><use href="#H" x="239.852" y="179.293"/></g><g class="B D F"><use href="#H" x="235.694" y="148.648"/></g><g class="B D F"><use href="#H" x="241.468" y="156.42"/></g><g class="B D F"><use href="#H" x="266.765" y="206.314"/></g><g class="B D F"><use href="#H" x="273.092" y="224.421"/></g><g class="B D F"><use href="#H" x="258.449" y="174.898"/></g><g class="B D F"><use href="#H" x="277.156" y="199.425"/></g><g class="B D F"><use href="#H" x="248.064" y="189.951"/></g><g class="B D F"><use href="#H" x="300.022" y="177.036"/></g><g class="B D F"><use href="#H" x="143.215" y="165.649"/></g><g fill="none" stroke="#000" stroke-width="1.2" stroke-linecap="square"><path d="M239.457 222.422l15.282 9.156m-15.282-9.156l-.516-.488" class="B"/><path d="M254.739 231.578l-15.282-9.156m15.282 9.156l11.162-3.648m-35.409-15.71l2.285-18.197m-2.285 18.197l8.45 9.714" class="B"/><path d="M232.777 194.023l-2.285 18.198m8.449 9.713l.516.488m-.516-.488l-8.449-9.713M265.9 227.93l-11.161 3.648m-26.019-58.777l-12.274-12.236" class="B"/><path d="M216.446 160.565L228.72 172.8m-12.274-12.235l-1.771 8.573m-.562 7.505l-16.206 17.698" class="B"/><path d="M197.907 194.341l16.206-17.698m-16.206 17.698l-2.289 2.947m36.282-4.878l.877 1.613m-.877-1.613l-3.18-19.609m-41.88 27.074l-4.155 1.385m4.155-1.385l.747-.232" class="B"/><path d="M182.685 201.26l4.156-1.385m-4.156 1.385l-8.355 3.982m105.816 20.023l-.321.426m.321-.426l8.385-13.035" class="B"/><path d="M280.146 225.265l8.373-13.016m-8.694 13.441l.321-.425m-.321.425l-.443.492m-64.732-56.737l-.537 7.198m.537-7.198l.025-.307m73.855 43.092l-8.384 13.035" class="B"/><path d="m288.53 212.23-.011.019" class="B"/><path d="M288.53 212.23l8.35-14.201m-8.361 14.22l-8.373 13.016" class="B"/><path d="M288.519 212.249l.012-.019m18.235-18.8l-4.892 2.418m4.892-2.418L433 112.89m-270.023 98.632l11.353-6.28m-11.353 6.28L-1 307.941m215.675-138.803l1.77-8.573m-1.77 8.573l-.026.307m61.794 58.571l-6.054.514m6.054-.514l1.234-.605" class="B"/><path d="M270.39 228.53l6.053-.514m-6.053.514l-2.72-.233m10.832-1.331l.88-.784m-.88.784l-.825.445m1.705-1.229l.443-.491" class="B"/><path d="M279.382 226.182l-.88.784m23.372-31.118l4.892-2.418m-4.892 2.418l-1.201.544" class="B"/><path d="M300.673 196.392l1.201-.544m-1.201.544l-3.793 1.637m-109.293 1.614l8.031-2.355m-8.031 2.355l-.746.232m-12.511 5.367l8.355-3.982m-8.355 3.982l-11.353 6.28m114.7 15.889l-1.234.605m1.234-.605l.825-.445m-11.18 1.268l-.442-.096m.442.096l.348.063m-.79-.159l-.98-.208m1.77.367l2.72.233" class="B"/><path d="m267.67 228.297-.348-.063" class="B"/></g><defs><clipPath id="I"><path d="M55.08 51.84h332.64v332.64H55.08z"/></clipPath></defs></svg>